<svg xmlns="http://www.w3.org/2000/svg" width="220" height="58" viewBox="0 0 220 58">
  <path fill="#FFF" fill-rule="evenodd" d="M73.7921554,31.112347 C77.3543376,31.112347 80.4746203,32.5443038 82.7498967,34.8195802 C82.9821469,35.0518304 83.0053719,35.2827145 82.8195718,35.5134619 L82.7498967,35.5903743 L80.3278827,38.1979187 C80.1069329,38.4542879 79.8134577,38.4542879 79.5570885,38.2350248 C78.0138136,36.8755935 76.1062245,36.0322738 73.7550494,36.0322738 C69.2770221,36.0322738 65.751946,39.5927694 65.751946,44.3659586 C65.751946,49.1020417 69.2770221,52.6625372 73.7550494,52.6625372 C76.1062245,52.6625372 78.0138136,51.8192176 79.5570885,50.4597863 C79.7849722,50.2648858 80.0421743,50.2432301 80.251697,50.4208802 L80.3278827,50.4968924 L82.7498967,53.1027501 C83.0079525,53.3608059 83.0079525,53.617175 82.7498967,53.8752309 C80.4746203,56.1505073 77.3543376,57.582464 73.7921554,57.582464 C66.4502146,57.582464 60.57565,51.7450054 60.57565,44.3659586 C60.57565,36.9498056 66.4502146,31.112347 73.7921554,31.112347 Z M100.520328,31.4058223 C100.816333,31.4058223 101.024903,31.5847916 101.063657,31.8615792 L101.070173,31.9573533 L101.070173,35.2968991 C101.070173,35.5944223 100.891203,35.8031439 100.615645,35.841913 L100.520328,35.8484302 L91.4883748,35.8484302 L91.4883748,41.6487827 L99.9687972,41.6487827 C100.26632,41.6487827 100.475042,41.827752 100.513811,42.1045396 L100.520328,42.2003137 L100.520328,45.5398595 C100.520328,45.8373827 100.341359,46.0461043 100.064571,46.0848734 L99.9687972,46.0913905 L91.4883748,46.0913905 L91.4883748,52.6625372 L100.555748,52.6625372 C100.853271,52.6625372 101.061992,52.8415065 101.100762,53.1182941 L101.107279,53.2140683 L101.107279,56.5553007 C101.107279,56.8528239 100.928309,57.0601793 100.651522,57.0986751 L100.555748,57.1051451 L87.0086609,57.1051451 C86.7111377,57.1051451 86.5037823,56.927542 86.4652864,56.6510276 L86.4588165,56.5553007 L86.4588165,31.9573533 C86.4588165,31.6598302 86.6364196,31.4511085 86.912934,31.4123395 L87.0086609,31.4058223 L100.520328,31.4058223 Z M50.3697957,31.4058223 C50.6265865,31.4058223 50.8833773,31.5181683 51.0170073,31.7428602 L51.0663777,31.8460351 L59.9886995,56.4810886 C60.123209,56.8181353 59.9799384,57.0616439 59.644631,57.099888 L59.5484867,57.1051451 L55.4735661,57.1051451 C55.2112,57.1051451 55.0088033,57.0185226 54.888883,56.7670954 L54.847823,56.6649322 L53.3433407,52.2223244 L43.798649,52.2223244 L42.2924801,56.6649322 C42.1950298,56.9587823 42.0096245,57.0780548 41.7635093,57.100932 L41.6684236,57.1051451 L37.5935031,57.1051451 C37.2224424,57.1051451 37.0384582,56.8897238 37.1233963,56.5706073 L37.1532902,56.4810886 L46.0739254,31.8460351 C46.169853,31.5892443 46.3510086,31.4447995 46.5914041,31.4127006 L46.6979819,31.4058223 L50.3697957,31.4058223 Z M25.2574233,31.4058223 C25.5549465,31.4058223 25.7636681,31.5847916 25.8024372,31.8615792 L25.8089544,31.9573533 L25.8089544,52.6625372 L34.1426391,52.6625372 C34.4401623,52.6625372 34.6475177,52.8415065 34.6860135,53.1182941 L34.6924835,53.2140683 L34.6924835,56.5553007 C34.6924835,56.8528239 34.5148804,57.0601793 34.238366,57.0986751 L34.1426391,57.1051451 L21.3292404,57.1051451 C21.0317173,57.1051451 20.8243618,56.927542 20.785866,56.6510276 L20.779396,56.5553007 L20.779396,31.9573533 C20.779396,31.6598302 20.9569991,31.4511085 21.2335135,31.4123395 L21.3292404,31.4058223 L25.2574233,31.4058223 Z M8.14984103,31.4058223 C14.2082494,31.4058223 17.4752697,34.8937923 17.4752697,39.7766131 C17.4752697,44.608684 14.3238869,48.0594829 8.47172558,48.1811849 L8.14984103,48.1845099 L5.02955835,48.1845099 L5.02955835,56.5553007 C5.02955835,56.8528239 4.85058906,57.0601793 4.57380143,57.0986751 L4.47802731,57.1051451 L0.549844408,57.1051451 C0.252321237,57.1051451 0.0449658034,56.927542 0.0064699483,56.6510276 L1.42108547e-14,56.5553007 L1.42108547e-14,31.9573533 C1.42108547e-14,31.6598302 0.177603117,31.4511085 0.454117508,31.4123395 L0.549844408,31.4058223 L8.14984103,31.4058223 Z M48.5701515,37.9415495 L45.1934997,47.9635602 L51.94849,47.9635602 L48.5701515,37.9415495 Z M8.04020948,35.8484302 L5.02955835,35.8484302 L5.02955835,43.704796 L8.04020948,43.704796 C10.389698,43.704796 12.6649744,42.7872642 12.6649744,39.7766131 C12.6649744,36.803068 10.389698,35.8484302 8.04020948,35.8484302 Z M220,31.4543975 L220,35.9341114 L169.163174,35.9341114 L169.163174,31.4543975 L220,31.4543975 Z M138.921732,0.417535989 C142.482227,0.417535989 145.60251,1.84949274 147.879473,4.12476914 C148.110205,4.35701937 148.133278,4.58790342 147.948692,4.81865086 L147.879473,4.8955633 L145.455772,7.50310763 C145.236509,7.7594768 144.943034,7.7594768 144.684978,7.5402137 C143.14339,6.18078243 141.234114,5.33746279 138.884625,5.33746279 C134.404911,5.33746279 130.881522,8.89795832 130.881522,13.561516 C130.881522,18.3330185 134.258174,21.9677262 138.994257,21.9677262 C143.085354,21.9677262 145.457679,19.5482369 145.700357,16.5259254 L145.713828,16.3141113 L139.215207,16.3141113 C138.917684,16.3141113 138.708962,16.1365082 138.670193,15.8599938 L138.663676,15.7642669 L138.663676,12.6422975 C138.663676,12.3447744 138.842645,12.1374189 139.119433,12.0989231 L139.215207,12.0924531 L150.082224,12.0924531 C150.379747,12.0924531 150.588468,12.2700562 150.627238,12.5465706 L150.633755,12.6422975 L150.633755,14.809629 C150.633755,21.4549878 146.337884,26.887653 139.031363,26.887653 C131.652316,26.887653 125.703539,20.9776689 125.703539,13.561516 C125.703539,6.25499456 131.578104,0.417535989 138.921732,0.417535989 Z M182.389799,0.417535989 C189.659215,0.417535989 195.606305,6.29210062 195.606305,13.6711475 C195.606305,21.0130883 189.659215,26.887653 182.389799,26.887653 C175.120384,26.887653 169.173294,21.0130883 169.173294,13.6711475 C169.173294,6.29210062 175.120384,0.417535989 182.389799,0.417535989 Z M106.467418,0.711011225 C106.724209,0.711011225 106.925473,0.794947883 107.070079,0.98880928 L107.128581,1.07869859 L117.003854,18.5168622 L117.003854,1.26254227 C117.003854,0.965019101 117.182823,0.756297489 117.459611,0.717528399 L117.555385,0.711011225 L121.483568,0.711011225 C121.781091,0.711011225 121.988447,0.889980519 122.026942,1.16676815 L122.033412,1.26254227 L122.033412,25.8604896 C122.033412,26.1580128 121.855809,26.3653682 121.579295,26.4038641 L121.483568,26.410334 L116.966748,26.410334 C116.709957,26.410334 116.509985,26.3263974 116.365701,26.132536 L116.307272,26.0426467 L106.430312,8.60448309 L106.430312,25.8604896 C106.430312,26.1580128 106.251343,26.3653682 105.975785,26.4038641 L105.880468,26.410334 L101.950598,26.410334 C101.654593,26.410334 101.446023,26.2327309 101.407269,25.9562165 L101.400754,25.8604896 L101.400754,1.26254227 C101.400754,0.965019101 101.579723,0.756297489 101.855281,0.717528399 L101.950598,0.711011225 L106.467418,0.711011225 Z M167.888075,0.711011225 C168.185598,0.711011225 168.392953,0.889980519 168.431449,1.16676815 L168.437919,1.26254227 L168.437919,4.60208806 C168.437919,4.89961123 168.260316,5.10833284 167.983802,5.14710193 L167.888075,5.15361911 L162.344091,5.15361911 L162.344091,25.8604896 C162.344091,26.1580128 162.165122,26.3653682 161.889564,26.4038641 L161.794247,26.410334 L157.864377,26.410334 C157.568372,26.410334 157.359802,26.2327309 157.321048,25.9562165 L157.314533,25.8604896 L157.314533,5.15361911 L151.733444,5.15361911 C151.43592,5.15361911 151.228565,4.97464981 151.190069,4.69786218 L151.183599,4.60208806 L151.183599,1.26254227 C151.183599,0.965019101 151.361202,0.756297489 151.637717,0.717528399 L151.733444,0.711011225 L167.888075,0.711011225 Z M204.344783,0.711011225 C204.601574,0.711011225 204.801546,0.794947883 204.945829,0.98880928 L205.004259,1.07869859 L214.881218,18.5168622 L214.881218,1.26254227 C214.881218,0.965019101 215.058822,0.756297489 215.335336,0.717528399 L215.431063,0.711011225 L219.359246,0.711011225 C219.656769,0.711011225 219.865491,0.889980519 219.90426,1.16676815 L219.910777,1.26254227 L219.910777,25.8604896 C219.910777,26.1580128 219.731807,26.3653682 219.45502,26.4038641 L219.359246,26.410334 L214.844112,26.410334 C214.587322,26.410334 214.386058,26.3263974 214.241452,26.132536 L214.18295,26.0426467 L204.307677,8.60448309 L204.307677,25.8604896 C204.307677,26.1580128 204.128707,26.3653682 203.85192,26.4038641 L203.756146,26.410334 L199.827963,26.410334 C199.53044,26.410334 199.323084,26.2327309 199.284588,25.9562165 L199.278118,25.8604896 L199.278118,1.26254227 C199.278118,0.965019101 199.455722,0.756297489 199.732236,0.717528399 L199.827963,0.711011225 L204.344783,0.711011225 Z M96.4454077,0.711011225 C96.7414129,0.711011225 96.9499827,0.889980519 96.9887366,1.16676815 L96.9952521,1.26254227 L96.9952521,25.8604896 C96.9952521,26.1580128 96.8162828,26.3653682 96.5407247,26.4038641 L96.4454077,26.410334 L92.5155382,26.410334 C92.219533,26.410334 92.0109632,26.2327309 91.9722092,25.9562165 L91.9656938,25.8604896 L91.9656938,1.26254227 C91.9656938,0.965019101 92.1446631,0.756297489 92.4202211,0.717528399 L92.5155382,0.711011225 L96.4454077,0.711011225 Z M75.0048491,0.711011225 C83.8158527,0.711011225 88.4777237,6.40173218 88.4777237,13.561516 C88.4777237,20.6173546 83.9480976,26.2474425 75.3799217,26.4068622 L75.0048491,26.410334 L67.7725398,26.410334 C67.4750167,26.410334 67.266295,26.2327309 67.227526,25.9562165 L67.2210088,25.8604896 L67.2210088,1.26254227 C67.2210088,0.965019101 67.3999781,0.756297489 67.6767657,0.717528399 L67.7725398,0.711011225 L75.0048491,0.711011225 Z M50.2601641,0.711011225 C59.0711677,0.711011225 63.7347254,6.40173218 63.7347254,13.561516 C63.7347254,20.6173546 59.2034605,26.2474425 50.6352378,26.4068622 L50.2601641,26.410334 L43.0278548,26.410334 C42.7303317,26.410334 42.5216101,26.2327309 42.482841,25.9562165 L42.4763238,25.8604896 L42.4763238,1.26254227 C42.4763238,0.965019101 42.6552931,0.756297489 42.9320807,0.717528399 L43.0278548,0.711011225 L50.2601641,0.711011225 Z M29.8467688,0.711011225 C30.1050355,0.711011225 30.3620108,0.823357213 30.4956638,1.04804919 L30.5450375,1.15122408 L39.4656727,25.7862775 C39.6017282,26.1233243 39.4585864,26.3668328 39.1219906,26.405077 L39.0254598,26.410334 L34.9505393,26.410334 C34.6896724,26.410334 34.4861096,26.3237116 34.3670963,26.0722843 L34.3264828,25.9701212 L32.8220005,21.5275133 L23.2756222,21.5275133 L21.7711399,25.9701212 C21.6721904,26.2639712 21.4879511,26.3832437 21.2421136,26.4061209 L21.1470834,26.410334 L17.0704762,26.410334 C16.7009617,26.410334 16.515689,26.1949127 16.6004017,25.8757963 L16.6302634,25.7862775 L25.5525852,1.15122408 C25.6485128,0.894433247 25.8296684,0.749988404 26.0700639,0.71788955 L26.1766417,0.711011225 L29.8467688,0.711011225 Z M8.14984103,0.711011225 C14.2082494,0.711011225 17.4752697,4.19898127 17.4752697,9.08180201 C17.4752697,13.913873 14.3238869,17.3646719 8.47172558,17.4863739 L8.14984103,17.4896989 L5.02955835,17.4896989 L5.02955835,25.8604896 C5.02955835,26.1580128 4.85058906,26.3653682 4.57380143,26.4038641 L4.47802731,26.410334 L0.549844408,26.410334 C0.252321237,26.410334 0.0449658034,26.2327309 0.0064699483,25.9562165 L1.42108547e-14,25.8604896 L1.42108547e-14,1.26254227 C1.42108547e-14,0.965019101 0.177603117,0.756297489 0.454117508,0.717528399 L0.549844408,0.711011225 L8.14984103,0.711011225 Z M50.2601641,5.15361911 L47.5058822,5.15361911 L47.5058822,21.9677262 L50.2601641,21.9677262 C55.8412535,21.9677262 58.6309549,18.8474435 58.6309549,13.561516 C58.6309549,8.27390179 55.8412535,5.15361911 50.2601641,5.15361911 Z M75.0048491,5.15361911 L72.2505671,5.15361911 L72.2505671,21.9677262 L75.0048491,21.9677262 C80.5842518,21.9677262 83.3756399,18.8474435 83.3756399,13.561516 C83.3756399,8.27390179 80.5842518,5.15361911 75.0048491,5.15361911 Z M28.0488113,7.24673846 L24.6704728,17.2687491 L31.4254632,17.2687491 L28.0488113,7.24673846 Z M8.04020948,5.15361911 L5.02955835,5.15361911 L5.02955835,13.0099849 L8.04020948,13.0099849 C10.389698,13.0099849 12.6649744,12.0924531 12.6649744,9.08180201 C12.6649744,6.10825694 10.389698,5.15361911 8.04020948,5.15361911 Z"/>
</svg>
