<svg xmlns="http://www.w3.org/2000/svg" width="95" height="98" viewBox="0 0 95 98">
  <path fill="#FFF" fill-rule="evenodd" d="M13.188913 91.5319565L8.55847826 84.6928261C11.5193478 84.0732609 13.1084783 81.8406522 13.1084783 79.0123913 13.1084783 75.6754348 10.8997826 73.1732609 6.80847826 73.1732609L1.7476087 73.1732609C1.50630435 73.1732609 1.34326087 73.3341304 1.34326087 73.5732609L1.34326087 91.6123913C1.34326087 91.8536957 1.50630435 92.0167391 1.7476087 92.0167391L3.04108696 92.0167391C3.2823913 92.0167391 3.44326087 91.8536957 3.44326087 91.6123913L3.44326087 84.8558696 6.4323913 84.8558696 11.0084783 91.7471739C11.115 91.9363043 11.2780435 92.0167391 11.4932609 92.0167391L12.9193478 92.0167391C13.2432609 92.0167391 13.3780435 91.8276087 13.188913 91.5319565L13.188913 91.5319565zM3.44326087 75.1080435L6.70195652 75.1080435C9.12369565 75.1080435 11.0606522 76.1863043 11.0606522 79.0123913 11.0606522 81.8406522 9.12369565 82.9167391 6.70195652 82.9167391L3.44326087 82.9167391 3.44326087 75.1080435zM17.2258696 75.6754348C17.9541304 75.6754348 18.5193478 75.1080435 18.5193478 74.3819565 18.5193478 73.6558696 17.9541304 73.0928261 17.2258696 73.0928261 16.4997826 73.0928261 15.9345652 73.6558696 15.9345652 74.3819565 15.9345652 75.1080435 16.4997826 75.6754348 17.2258696 75.6754348L17.2258696 75.6754348zM16.2302174 79.2297826L16.2302174 91.6123913C16.2302174 91.8536957 16.391087 92.0167391 16.6345652 92.0167391L17.8454348 92.0167391C18.088913 92.0167391 18.2497826 91.8536957 18.2497826 91.6123913L18.2497826 79.2297826C18.2497826 78.9863043 18.088913 78.8232609 17.8454348 78.8232609L16.6345652 78.8232609C16.391087 78.8232609 16.2302174 78.9863043 16.2302174 79.2297826L16.2302174 79.2297826zM27.6715217 90.5363043C24.9258696 90.5363043 22.9867391 88.3558696 22.9867391 85.445 22.9867391 82.5384783 24.9258696 80.3580435 27.6715217 80.3580435 29.7432609 80.3580435 30.6323913 81.3536957 31.4128261 82.0558696 31.6280435 82.245 31.8171739 82.245 32.0041304 82.0558696L32.6780435 81.4341304C32.838913 81.2732609 32.8671739 81.0602174 32.7041304 80.871087 31.4671739 79.4428261 29.7432609 78.5297826 27.6715217 78.5297826 23.8758696 78.5297826 21.0497826 81.571087 21.0497826 85.445 21.0497826 89.3232609 23.8758696 92.3667391 27.6715217 92.3667391 29.7976087 92.3667391 31.5476087 91.4515217 32.7867391 90.0254348 32.9476087 89.8363043 32.9193478 89.621087 32.7584783 89.4602174L32.0867391 88.8406522C31.8976087 88.6515217 31.7084783 88.6254348 31.4932609 88.8406522 30.738913 89.5906522 29.7976087 90.5363043 27.6715217 90.5363043L27.6715217 90.5363043zM46.9454348 91.5319565L41.3193478 84.3971739 46.191087 79.3102174C46.4345652 79.0406522 46.3258696 78.8232609 45.9758696 78.8232609L44.6041304 78.8232609C44.415 78.8232609 44.2258696 78.8797826 44.091087 79.0406522L37.6041304 85.8776087 37.6041304 72.768913C37.6041304 72.5276087 37.4432609 72.3645652 37.1997826 72.3645652L35.988913 72.3645652C35.7476087 72.3645652 35.5845652 72.5276087 35.5845652 72.768913L35.5845652 91.6123913C35.5845652 91.8536957 35.7476087 92.0167391 35.988913 92.0167391L37.1997826 92.0167391C37.4432609 92.0167391 37.6041304 91.8536957 37.6041304 91.6123913L37.6041304 88.245 40.0802174 85.6623913 44.8715217 91.771087C45.0063043 91.9602174 45.141087 92.0167391 45.3563043 92.0167391L46.7041304 92.0167391C47.0258696 92.0167391 47.1606522 91.8015217 46.9454348 91.5319565L46.9454348 91.5319565zM54.0519565 78.5297826C50.2563043 78.5297826 47.591087 81.571087 47.591087 85.445 47.591087 89.3232609 50.3367391 92.3667391 54.2671739 92.3667391 56.2323913 92.3667391 57.9563043 91.6406522 59.1932609 90.3471739 59.4084783 90.1297826 59.3823913 89.9428261 59.1671739 89.7276087L58.6563043 89.2406522C58.441087 89.0536957 58.2780435 89.1341304 58.091087 89.2971739 57.2280435 90.0254348 56.1258696 90.6167391 54.4823913 90.6167391 51.6823913 90.6167391 49.8802174 88.7841304 49.5823913 86.2819565L59.4628261 86.2819565C60.1367391 86.2819565 60.2432609 85.8515217 60.2432609 84.9363043 60.2432609 81.571087 57.8476087 78.5297826 54.0519565 78.5297826L54.0519565 78.5297826zM54.0519565 80.3058696C56.5563043 80.3058696 58.3584783 82.245 58.4671739 84.718913L49.5563043 84.718913C49.8258696 82.1623913 51.5758696 80.3058696 54.0519565 80.3058696L54.0519565 80.3058696zM68.4541304 78.8232609L66.5693478 78.8232609 66.5693478 75.1884783C66.5693478 74.9493478 66.4084783 74.7884783 66.1671739 74.7884783L64.9541304 74.7884783C64.7128261 74.7884783 64.5519565 74.9493478 64.5519565 75.1884783L64.5519565 78.8232609 62.6671739 78.8232609C62.4236957 78.8232609 62.2628261 78.9863043 62.2628261 79.2297826L62.2628261 80.145C62.2628261 80.3863043 62.4236957 80.5471739 62.6671739 80.5471739L64.5519565 80.5471739 64.5519565 91.6123913C64.5519565 91.8536957 64.7128261 92.0167391 64.9541304 92.0167391L66.1671739 92.0167391C66.4084783 92.0167391 66.5693478 91.8536957 66.5693478 91.6123913L66.5693478 80.5471739 68.4541304 80.5471739C68.6976087 80.5471739 68.8584783 80.3863043 68.8584783 80.145L68.8584783 79.2297826C68.8584783 78.9863043 68.6976087 78.8232609 68.4541304 78.8232609L68.4541304 78.8232609zM77.2041304 78.8232609L75.3193478 78.8232609 75.3193478 75.1884783C75.3193478 74.9493478 75.1563043 74.7884783 74.915 74.7884783L73.7041304 74.7884783C73.4606522 74.7884783 73.2997826 74.9493478 73.2997826 75.1884783L73.2997826 78.8232609 71.415 78.8232609C71.1736957 78.8232609 71.0106522 78.9863043 71.0106522 79.2297826L71.0106522 80.145C71.0106522 80.3863043 71.1736957 80.5471739 71.415 80.5471739L73.2997826 80.5471739 73.2997826 91.6123913C73.2997826 91.8536957 73.4606522 92.0167391 73.7041304 92.0167391L74.915 92.0167391C75.1563043 92.0167391 75.3193478 91.8536957 75.3193478 91.6123913L75.3193478 80.5471739 77.2041304 80.5471739C77.4454348 80.5471739 77.6063043 80.3863043 77.6063043 80.145L77.6063043 79.2297826C77.6063043 78.9863043 77.4454348 78.8232609 77.2041304 78.8232609L77.2041304 78.8232609zM91.5519565 78.8232609L90.2867391 78.8232609C90.0715217 78.8232609 89.8823913 78.9341304 89.8019565 79.1493478L85.7628261 89.7276087 81.7258696 79.1493478C81.6454348 78.9341304 81.4563043 78.8232609 81.241087 78.8232609L80.0019565 78.8232609C79.7063043 78.8232609 79.5715217 78.9863043 79.6802174 79.2819565L84.741087 92.071087 82.8823913 96.671087C82.7758696 96.968913 82.9106522 97.1297826 83.2063043 97.1297826L84.4454348 97.1297826C84.6606522 97.1297826 84.8476087 97.021087 84.9280435 96.8080435L91.8736957 79.2819565C91.9823913 78.9863043 91.8476087 78.8232609 91.5519565 78.8232609L91.5519565 78.8232609zM33.1467391 31.948913C37.925 28.6684783 41.1141304 23.9836957 41.1141304 18.0771739 41.1141304 7.48586957 32.1141304.175 21.5228261.175 13.7423913.175 6.52717391 3.82934783 2.3076087 9.45326087 1.74673913 10.1097826 1.84021739 10.8619565 2.40108696 11.4228261L8.11847826 16.8597826C8.77717391 17.5141304 9.52717391 17.701087 10.1815217 16.8597826 12.901087 13.3923913 16.8380435 11.4228261 21.0554348 11.4228261 25.3663043 11.4228261 30.2402174 14.3293478 30.2402174 19.2967391 30.2402174 23.2315217 27.8032609 27.6402174 18.6163043 27.9184783 17.5880435 27.9184783 17.1184783 28.4815217 17.1184783 29.3271739L17.1184783 35.9793478C17.1184783 36.8228261 17.5880435 37.3880435 18.5228261 37.3880435 27.9923913 37.6684783 31.3663043 42.2597826 31.3663043 46.9467391 31.3663043 52.1945652 27.2423913 56.5097826 20.2119565 56.5097826 14.775 56.5097826 11.1206522 54.2597826 8.21195652 50.9793478 7.5576087 50.2271739 6.8076087 50.3206522 6.15108696 50.9793478L.433695652 56.5097826C-.129347826 57.0706522-.129347826 57.8184783.340217391 58.475 4.5576087 64.2858696 12.2445652 67.7576087 20.8684783 67.7576087 34.6445652 67.7576087 43.551087 58.9467391 43.551087 47.6967391 43.551087 40.1054348 38.9576087 34.8576087 33.1467391 31.948913M82.2619565 29.4206522C86.3836957 26.6076087 89.1945652 22.0163043 89.1945652 16.9532609 89.1945652 7.95543478 81.9815217.175 70.7336957.175 59.5793478.175 52.3619565 7.95543478 52.3619565 16.9532609 52.3619565 22.0163043 55.1728261 26.6076087 59.2945652 29.4206522 53.0163043 32.325 48.2336957 38.6054348 48.2336957 46.8532609 48.2336957 59.7902174 59.6728261 67.7576087 70.7336957 67.7576087 81.7923913 67.7576087 93.2293478 59.7902174 93.2293478 46.8532609 93.2293478 38.6054348 88.5402174 32.325 82.2619565 29.4206522M63.2336957 17.3271739C63.2336957 13.3923913 66.3271739 10.1097826 70.7336957 10.1097826 75.2293478 10.1097826 78.2293478 13.3923913 78.2293478 17.3271739 78.2293478 21.3597826 75.1358696 24.8271739 70.7336957 24.8271739 66.3271739 24.8271739 63.2336957 21.3597826 63.2336957 17.3271739M70.7336957 56.3206522C65.4836957 56.3206522 60.8902174 52.4771739 60.8902174 46.4793478 60.8902174 40.3880435 65.7641304 36.7293478 70.7336957 36.7293478 75.7945652 36.7293478 80.6663043 40.3880435 80.6663043 46.4793478 80.6663043 52.4771739 76.075 56.3206522 70.7336957 56.3206522" transform="translate(.62)"/>
</svg>
