<svg xmlns="http://www.w3.org/2000/svg" width="101" height="80" viewBox="0 0 101 80">
  <path fill="#FFF" d="M53.9745131,76.6530416 C54.0129839,75.6143304 54.8785766,74.8256792 55.9172878,74.86415 C56.955999,74.9026208 57.7446502,75.7682135 57.7061794,76.8069247 C57.6677086,77.8071652 56.8405867,78.5958163 55.8403462,78.5958163 C54.801635,78.5958163 53.9745131,77.749459 53.9745131,76.7107478 C53.9745131,76.6915124 53.9745131,76.672277 53.9745131,76.6530416 M53.3205097,76.6530416 C53.3397451,78.0379899 54.4746333,79.1536427 55.878817,79.1344073 C57.2637653,79.1151719 58.3794181,77.9802837 58.3601827,76.5761 C58.3409473,75.1911517 57.2060591,74.0947343 55.8403462,74.0947343 C54.4553979,74.0947343 53.3397451,75.2296225 53.3397451,76.6145708 C53.3205097,76.6338062 53.3205097,76.6530416 53.3205097,76.6530416 M53.1473912,76.6530416 C53.1666266,75.1719163 54.3784564,73.979322 55.8595816,73.9985573 C57.3407069,74.0177927 58.5333013,75.2296225 58.5140659,76.7107478 C58.4948305,78.1726377 57.3022361,79.365232 55.8403462,79.365232 C54.359221,79.365232 53.1666266,78.1726377 53.1666266,76.6915124 C53.1666266,76.6915124 53.1666266,76.672277 53.1473912,76.6530416 M52.5126232,76.6530416 C52.5126232,78.4996393 53.9937485,80 55.8403462,80 C57.686944,80 59.1873046,78.5188747 59.1873046,76.672277 C59.1873046,74.8256792 57.7061794,73.3253186 55.8595816,73.3253186 C55.8595816,73.3253186 55.8595816,73.3253186 55.8403462,73.3253186 C54.0129839,73.3253186 52.5126232,74.8256792 52.5126232,76.6530416 C52.5126232,76.6530416 52.5126232,76.6530416 52.5126232,76.6530416 M38.9132003,76.6530416 C38.9516711,75.6143304 39.8172638,74.8256792 40.855975,74.86415 C41.8946862,74.9026208 42.6833373,75.7682135 42.6448666,76.8069247 C42.6063958,77.8071652 41.7792739,78.5958163 40.7790334,78.5958163 C39.7403222,78.5958163 38.9132003,77.749459 38.9132003,76.7107478 C38.9132003,76.6915124 38.9132003,76.672277 38.9132003,76.6530416 M38.2591969,76.6530416 C38.2784323,78.0379899 39.4133205,79.1536427 40.8175042,79.1344073 C42.2024525,79.1151719 43.3181053,77.9802837 43.2988699,76.5761 C43.2796345,75.2103871 42.1639817,74.0947343 40.7790334,74.0947343 C39.3940851,74.0947343 38.2591969,75.2296225 38.2591969,76.6145708 C38.2591969,76.6338062 38.2591969,76.6530416 38.2591969,76.6530416 M38.0860784,76.6530416 C38.1053138,75.1719163 39.3171435,73.979322 40.7982688,73.9985573 C42.2793941,74.0177927 43.4719885,75.2296225 43.4527531,76.7107478 C43.4335177,78.1726377 42.2409233,79.365232 40.7790334,79.365232 C39.2979082,79.365232 38.1053138,78.1726377 38.0860784,76.7107478 C38.0860784,76.6915124 38.0860784,76.672277 38.0860784,76.6530416 M37.4513104,76.6530416 C37.4513104,78.4996393 38.9324357,80 40.7790334,80 C42.6256312,80 44.1259918,78.5188747 44.1259918,76.672277 C44.1259918,74.8256792 42.6448666,73.3253186 40.7982688,73.3253186 C40.7982688,73.3253186 40.7982688,73.3253186 40.7982688,73.3253186 C38.9324357,73.3253186 37.4513104,74.8256792 37.4513104,76.6530416 M24.3520077,76.672277 C24.3327723,75.1911517 25.5061313,73.979322 26.9680212,73.9600866 C27.0064919,73.9600866 27.0449627,73.9600866 27.0834335,73.9600866 C27.448906,73.9600866 27.8336138,74.0177927 28.1990863,74.1139697 L28.1990863,74.2870882 C27.8336138,74.1716759 27.4681414,74.1139697 27.0834335,74.1139697 C25.6984852,74.0754989 24.5443616,75.1526809 24.5058908,76.5376292 C24.5058908,76.5761 24.5058908,76.6338062 24.5058908,76.672277 C24.5058908,78.1341669 25.6023082,79.2113489 27.0834335,79.2113489 C27.448906,79.2113489 27.8143785,79.1536427 28.1798509,79.0574657 L28.1798509,79.2305843 C27.8143785,79.3267612 27.448906,79.365232 27.0834335,79.365232 C25.5253667,79.365232 24.3520077,78.2303438 24.3520077,76.672277 M23.7172397,76.672277 C23.7172397,78.4804039 25.0829526,79.9807646 27.1026689,79.9807646 C27.6989661,79.9807646 28.4683818,79.8461169 28.8723251,79.6152921 L28.8723251,78.1726377 C28.3914403,78.4419332 27.8528492,78.5765809 27.3142582,78.5765809 C25.9677807,78.5765809 25.2368358,77.6917528 25.2368358,76.5953354 C25.2368358,75.5373888 25.9293099,74.6910315 27.2757874,74.6910315 C27.8528492,74.6717961 28.429911,74.8449146 28.8915605,75.1911517 L28.8915605,73.7292618 C28.4683818,73.4599663 27.7182015,73.3253186 27.1026689,73.3253186 C25.2753066,73.2868478 23.7749459,74.7295023 23.7364751,76.5376292 C23.7172397,76.5953354 23.7172397,76.6338062 23.7172397,76.672277 M4.53955278,74.4794422 L1.94277471,79.2498197 L1.75042077,79.2498197 L4.36643424,74.4409714 L4.36643424,74.2101467 L1.26953595,74.2101467 L1.26953595,74.0562635 L4.53955278,74.0562635 L4.53955278,74.4794422 Z M5.17432075,73.4599663 L0.61553258,73.4599663 L0.61553258,74.7872085 L3.48160616,74.7872085 L0.692474152,79.8268815 L2.34671796,79.8268815 L5.15508536,74.6140899 L5.17432075,73.4599663 Z M0.211589324,61.9379659 L0.211589324,64.438567 C2.46213032,64.438567 4.55878817,63.3421496 5.84755951,61.4955518 C8.02115893,64.6116855 12.3106516,65.3618658 15.4267853,63.1882664 C16.0807887,62.726617 16.6578504,62.1495552 17.1194999,61.4955518 C19.2930993,64.6116855 23.582592,65.3618658 26.6987257,63.1882664 C27.352729,62.726617 27.9297908,62.1495552 28.3914403,61.4955518 C30.5650397,64.6116855 34.8545323,65.3618658 37.970666,63.1882664 C38.6246694,62.726617 39.2017312,62.1495552 39.6633806,61.4955518 C40.952152,63.3421496 43.0488098,64.4193316 45.2993508,64.438567 L45.2993508,61.9379659 C42.8756913,61.9379659 40.9136812,59.9759558 40.9136812,57.5522962 L38.4130801,57.5522962 C38.4130801,59.9759558 36.45107,61.9379659 34.0274104,61.9379659 C31.6037509,61.9379659 29.6417408,59.9759558 29.6417408,57.5522962 L27.1411397,57.5522962 C27.0834335,59.9759558 25.0829526,61.8994951 22.6592931,61.8417889 C20.3125751,61.7840827 18.4082712,59.8990142 18.3698004,57.5522962 L15.8691993,57.5522962 C15.8114931,59.9759558 13.8110123,61.8994951 11.3873527,61.8417889 C9.04063477,61.7840827 7.13633085,59.8990142 7.09786006,57.5522962 L4.59725896,57.5522962 C4.59725896,59.9759558 2.63524886,61.9379659 0.211589324,61.9379659 C0.211589324,61.9379659 0.211589324,61.9379659 0.211589324,61.9379659 M19.8316903,49.0694879 L24.8136571,29.6609762 L22.4477038,29.6609762 L18.889156,43.7797547 L13.2724213,29.6417408 L12.9261842,29.6417408 L7.2709786,43.741284 L3.57778312,29.6417408 L0.961769656,29.6417408 L6.19379659,49.0502525 L7.48256792,49.0502525 L13.0415965,35.3546526 L18.5813898,49.0502525 L19.8316903,49.0694879 Z M8.36739601,7.59798028 L14.2149555,7.59798028 L14.2149555,5.13584996 L0,5.13584996 L0,7.59798028 L5.78985333,7.59798028 L5.78985333,24.563597 L8.36739601,24.563597 L8.36739601,7.59798028 Z M33.2387593,15.8884347 L35.0853571,15.8884347 L35.0853571,13.6186583 L33.2387593,13.6186583 L33.2387593,0 L31.0074537,0 L31.0074537,13.6186583 L20.9858139,13.6186583 L20.9858139,5.13584996 L18.7545083,5.13584996 L18.7545083,24.8136571 L20.9858139,24.8136571 L20.9858139,15.8884347 L31.0074537,15.8884347 L31.0074537,38.5284924 L29.1031498,38.5284924 L29.1031498,40.7982688 L31.0074537,40.7982688 L31.0074537,48.9540755 L33.2387593,48.9540755 L33.2387593,40.7982688 L42.9911036,40.7982688 L42.9911036,54.3976918 L45.2224092,54.3976918 L45.2224092,29.5840346 L42.9911036,29.5840346 L42.9911036,38.5477278 L33.2387593,38.5477278 L33.2387593,15.8884347 Z M38.1245492,24.563597 L49.8389036,24.563597 L49.8389036,22.313056 L40.7020918,22.313056 L40.7020918,15.8114931 L48.68478,15.8114931 L48.68478,13.5609522 L40.7020918,13.5609522 L40.7020918,7.40562635 L49.5503727,7.40562635 L49.5503727,5.13584996 L38.1245492,5.13584996 L38.1245492,24.563597 Z M60.8223131,42.6448666 L53.8591007,42.6448666 L57.2445299,33.7773503 L60.8223131,42.6448666 Z M63.4383265,49.0887233 L66.3044001,49.0887233 L58.2832412,29.6225054 L56.3019957,29.6225054 L48.7617216,49.0694879 L51.3969704,49.0694879 L53.0127434,44.8761722 L61.7456119,44.8761722 L63.4383265,49.0887233 Z M70.4400096,74.7295023 C70.9593652,74.7102669 71.3825439,75.1142101 71.4017793,75.6335658 C71.4017793,75.6528012 71.4017793,75.6720365 71.4017793,75.7105073 C71.4017793,76.2298629 70.9786006,76.672277 70.459245,76.672277 C70.459245,76.672277 70.4400096,76.672277 70.4400096,76.672277 L69.4205338,76.672277 L69.4205338,74.7487377 L70.4400096,74.7295023 Z M70.4784804,74.1716759 L68.7857658,74.1716759 L68.7857658,77.2301034 L70.3823034,77.2301034 C71.2478961,77.2685742 71.9980765,76.5953354 72.0365472,75.7297427 C72.0365472,75.6912719 72.0365472,75.6528012 72.0365472,75.6143304 C72.0365472,74.7679731 71.4017793,74.1909113 70.4784804,74.1716759 M68.6126473,74.0177927 L70.4784804,74.0177927 C71.4979562,74.0177927 72.2096658,74.6717961 72.2096658,75.6143304 C72.2096658,76.6338062 71.4402501,77.3839865 70.3823034,77.3839865 L68.7857658,77.3839865 L68.7857658,79.2305843 L68.6126473,79.2305843 L68.6126473,74.0177927 Z M70.4784804,73.4599663 L67.9778793,73.4599663 L67.9778793,79.8461169 L69.4205338,79.8461169 L69.4205338,77.9610483 L70.3823034,77.9610483 C71.8634287,77.9610483 72.8444338,76.9031017 72.8444338,75.6335658 C72.8444338,74.3640298 71.8441933,73.4599663 70.4784804,73.4599663 M74.7872085,41.298389 L72.8829045,41.298389 L72.8829045,31.9115172 L74.7872085,31.9115172 C78.1726377,31.9115172 79.8845876,33.7388795 79.8845876,36.7396009 C79.8845876,39.5479683 78.2495792,41.2791536 74.7872085,41.298389 M84.5203174,49.0887233 L79.5191152,42.2601587 C81.4234191,41.0867997 82.5967781,39.0863188 82.5967781,36.4895408 C82.5967781,32.0846357 79.5960567,29.6609762 75.4412118,29.6609762 L70.3245973,29.6609762 L70.3245973,49.0887233 L72.9021399,49.0887233 L72.9021399,43.4335177 L74.9987978,43.4335177 C75.6720365,43.4335177 76.3452753,43.3565761 77.0185141,43.2411637 L81.1925944,49.0887233 L84.5203174,49.0887233 Z M82.2313056,74.0370281 L85.2320269,74.0370281 L85.2320269,74.1909113 L82.4044241,74.1909113 L82.4044241,76.5183938 L84.8088483,76.5183938 L84.8088483,76.672277 L82.4044241,76.672277 L82.4044241,79.0959365 L85.3666747,79.0959365 L85.3666747,79.2498197 L82.250541,79.2498197 L82.250541,74.0370281 L82.2313056,74.0370281 Z M81.615773,79.8268815 L85.9437365,79.8268815 L85.9437365,78.5188747 L83.0199567,78.5188747 L83.0199567,77.2493388 L85.3859101,77.2493388 L85.3859101,75.9220967 L83.0199567,75.9220967 L83.0199567,74.7487377 L85.8090887,74.7487377 L85.8090887,73.4599663 L81.5965376,73.4599663 L81.615773,79.8268815 Z M90.7718201,31.9115172 L99.5046886,31.9115172 L99.5046886,29.6609762 L88.1942775,29.6609762 L88.1942775,49.0887233 L90.7718201,49.0887233 L90.7718201,41.4138014 L98.6583313,41.4138014 L98.6583313,39.1632604 L90.7718201,39.1632604 L90.7718201,31.9115172 Z M98.4275066,75.6720365 C98.4275066,76.1721568 98.0235634,76.5761 97.5234431,76.5761 C97.5042077,76.5761 97.4849723,76.5761 97.465737,76.5761 L96.4077903,76.5761 L96.4077903,74.7487377 L97.465737,74.7487377 C97.9658572,74.7295023 98.4082712,75.1142101 98.4275066,75.6143304 C98.4275066,75.6335658 98.4275066,75.6528012 98.4275066,75.6720365 M99.0622746,75.6335658 C99.0622746,74.7872085 98.4275066,74.1909113 97.4849723,74.1909113 L95.7922578,74.1909113 L95.7922578,77.0762202 L97.5042077,77.0762202 C98.4275066,77.0569849 99.0622746,76.4799231 99.0622746,75.6335658 M99.2353931,75.6335658 C99.2353931,76.4606877 98.6583313,77.0762202 97.8312094,77.210868 L98.9083914,79.2498197 L98.7160375,79.2498197 L97.6580909,77.2301034 C97.6003847,77.2301034 97.5619139,77.2301034 97.5042077,77.2301034 L95.7922578,77.2301034 L95.7922578,79.2498197 L95.6191392,79.2498197 L95.6191392,74.0370281 L97.4849723,74.0370281 C98.5044482,74.0370281 99.2161577,74.6910315 99.2353931,75.6335658 M99.8509257,75.5758596 C99.8509257,74.3640298 98.8506853,73.4599663 97.465737,73.4599663 L94.9651358,73.4599663 L94.9651358,79.8461169 L96.3885549,79.8461169 L96.3885549,77.7879298 L97.2541476,77.7879298 L98.3120943,79.8461169 L100.024044,79.8461169 L98.7352729,77.4609281 C99.4085117,77.0762202 99.8316903,76.3645107 99.8509257,75.5758596" transform="translate(.702)"/>
</svg>
