<svg xmlns="http://www.w3.org/2000/svg" width="220" height="66" viewBox="0 0 220 66">
  <path fill="#FFF" fill-rule="evenodd" d="M218.705693 55.5074453L218.705693 62.6277372 3.12638804e-13 62.6277372 3.12638804e-13 55.5074453 218.705693 55.5074453zM119.62219 56.0924526C118.697226 56.0924526 117.984234 56.437708 117.524964 56.8953723 117.05927 57.3610657 116.714015 58.0852993 116.714015 58.8898248 116.714015 59.5642774 116.937226 60.3206277 117.555474 60.9308467 118.078978 61.4463212 118.689197 61.6952263 119.527445 61.6952263 120.346423 61.6952263 120.763942 61.4704088 121.030511 61.2761022L121.552409 61.8236934 122.716642 61.6791679 121.785255 60.6658832C121.994015 60.4812117 122.170657 60.2563942 122.307153 59.9432555 122.44365 59.6365401 122.533577 59.3073431 122.533577 58.9058832 122.533577 58.0210657 122.186715 57.3209197 121.696934 56.8632555 121.191095 56.3895328 120.450803 56.0924526 119.62219 56.0924526zM106.333869 56.2128905L105.097372 56.2128905 105.097372 59.387635C105.097372 59.9031095 105.161606 60.5374161 105.691533 61.0834015 106.205401 61.6149343 106.799562 61.6952263 107.363212 61.6952263 107.926861 61.6952263 108.521022 61.6149343 109.034891 61.0834015 109.566423 60.5374161 109.630657 59.9031095 109.630657 59.387635L109.630657 56.2128905 108.392555 56.2128905 108.392555 59.3555182C108.392555 59.5899708 108.376496 59.9834015 108.111533 60.2563942 107.894745 60.4892409 107.596058 60.5374161 107.363212 60.5374161 107.130365 60.5374161 106.831679 60.4892409 106.616496 60.2563942 106.351533 59.9834015 106.333869 59.5899708 106.333869 59.3555182L106.333869 56.2128905zM124.735182 56.2128905L123.49708 56.2128905 123.49708 59.387635C123.49708 59.9031095 123.561314 60.5374161 124.091241 61.0834015 124.608321 61.6149343 125.200876 61.6952263 125.764526 61.6952263 126.326569 61.6952263 126.922336 61.6149343 127.436204 61.0834015 127.967737 60.5374161 128.031971 59.9031095 128.031971 59.387635L128.031971 56.2128905 126.793869 56.2128905 126.793869 59.3555182C126.793869 59.5899708 126.77781 59.9834015 126.512847 60.2563942 126.294453 60.4892409 125.997372 60.5374161 125.764526 60.5374161 125.531679 60.5374161 125.232993 60.4892409 125.01781 60.2563942 124.752847 59.9834015 124.735182 59.5899708 124.735182 59.3555182L124.735182 56.2128905zM162.706861 56.0924526C162.135182 56.0924526 161.75781 56.3012117 161.524964 56.5260292 161.324234 56.7267591 161.149197 57.0318686 161.149197 57.4895328 161.149197 57.707927 161.187737 57.9166861 161.292117 58.1174161 161.372409 58.2699708 161.532993 58.4626715 161.66146 58.5911387 161.332263 58.6890949 161.012701 58.8657372 160.794307 59.0905547 160.521314 59.3715766 160.376788 59.718438 160.376788 60.1600438 160.376788 60.7542044 160.65781 61.0994599 160.834453 61.268073 161.251971 61.6631095 161.751387 61.6952263 162.191387 61.6952263 162.547883 61.6952263 162.893139 61.6631095 163.196642 61.5346423 163.429489 61.438292 163.68 61.2520146 163.88073 61.0512847L164.364088 61.5731825 165.873577 61.5731825 164.731825 60.3206277C164.974307 60.1022336 165.215182 59.8452993 165.448029 59.548219L164.747883 58.8657372C164.556788 59.1146423 164.330365 59.3715766 164.065401 59.6124526L163.286569 58.7533285C163.501752 58.6650073 163.712117 58.5269051 163.864672 58.3823796 164.155328 58.1013577 164.274161 57.7561022 164.274161 57.4413577 164.274161 57.0720146 164.121606 56.7428175 163.904818 56.5260292 163.654307 56.2771241 163.252847 56.0924526 162.706861 56.0924526zM178.999708 56.0924526C177.930219 56.0924526 177.26219 56.518 176.900876 56.8793139 176.419124 57.3610657 176.075474 58.1415036 176.075474 58.9139124 176.075474 59.7023796 176.396642 60.4250073 176.908905 60.9067591 177.311971 61.2921606 177.994453 61.6952263 178.999708 61.6952263 179.900584 61.6952263 180.576642 61.3901168 181.074453 60.9067591 181.652555 60.3447153 181.909489 59.6124526 181.909489 58.897854 181.909489 58.0692409 181.580292 57.3610657 181.074453 56.8712847 180.536496 56.3493869 179.83635 56.0924526 178.999708 56.0924526zM101.262628 56.0924526C100.193139 56.0924526 99.5267153 56.518 99.1637956 56.8793139 98.680438 57.3610657 98.3351825 58.1415036 98.3351825 58.9139124 98.3351825 59.7023796 98.6579562 60.4250073 99.1718248 60.9067591 99.5732847 61.2921606 100.257372 61.6952263 101.262628 61.6952263 102.161898 61.6952263 102.837956 61.3901168 103.337372 60.9067591 103.913869 60.3447153 104.170803 59.6124526 104.170803 58.897854 104.170803 58.0692409 103.841606 57.3610657 103.337372 56.8712847 102.799416 56.3493869 102.097664 56.0924526 101.262628 56.0924526zM211.289927 56.0924526C210.454891 56.0924526 209.762774 56.4055912 209.289051 56.8632555 208.805693 57.3289489 208.454015 58.0371241 208.454015 58.8817956 208.454015 59.7425255 208.805693 60.4490949 209.289051 60.9147883 209.738686 61.3563942 210.405109 61.6952263 211.395912 61.6952263 211.715474 61.6952263 212.102482 61.6470511 212.576204 61.4061752L212.576204 59.9834015C212.102482 60.4490949 211.668905 60.5374161 211.346131 60.5374161 210.686131 60.5374161 210.30073 60.2001898 210.189927 60.087781 209.947445 59.8549343 209.724234 59.4598978 209.724234 58.9058832 209.724234 58.3904088 209.932993 57.9568321 210.228467 57.667781 210.509489 57.3931825 210.872409 57.2486569 211.322044 57.2486569 211.892117 57.2486569 212.303212 57.5296788 212.576204 57.8203358L212.576204 56.3895328C212.052701 56.1647153 211.643212 56.0924526 211.289927 56.0924526zM196.612555 56.0924526C196.111533 56.0924526 195.661898 56.1968321 195.284526 56.5822336 194.963358 56.9114307 194.818832 57.3128905 194.818832 57.788219 194.818832 58.0451533 194.858978 58.4225255 195.141606 58.7212117 195.348759 58.9460292 195.63781 59.058438 195.886715 59.1467591L196.329927 59.2993139C196.484088 59.3555182 196.813285 59.4759562 196.95781 59.5963942 197.071825 59.6927445 197.144088 59.8067591 197.144088 59.9834015 197.144088 60.1841314 197.054161 60.3286569 196.951387 60.4169781 196.771533 60.5695328 196.548321 60.6016496 196.386131 60.6016496 196.138832 60.6016496 195.918832 60.5374161 195.710073 60.4089489 195.565547 60.3206277 195.348759 60.1359562 195.212263 59.9994599L194.569927 60.8826715C194.770657 61.0834015 195.083796 61.3339124 195.356788 61.4704088 195.694015 61.6390219 196.031241 61.6952263 196.418248 61.6952263 196.771533 61.6952263 197.46365 61.6470511 197.937372 61.147635 198.22 60.8585839 198.412701 60.3768321 198.412701 59.8228175 198.412701 59.508073 198.330803 59.1226715 198.01927 58.8255912 197.810511 58.6232555 197.519854 58.5028175 197.287007 58.4144964L196.885547 58.2619416C196.522628 58.1254453 196.339562 58.0772701 196.211095 57.9568321 196.127591 57.8845693 196.087445 57.788219 196.087445 57.6597518 196.087445 57.5216496 196.146861 57.4012117 196.225547 57.3209197 196.370073 57.1603358 196.578832 57.1362482 196.749051 57.1362482 196.901606 57.1362482 197.246861 57.1603358 197.648321 57.5216496L198.202336 56.6223796C197.576058 56.1566861 196.981898 56.0924526 196.612555 56.0924526zM188.951095 56.2128905L187.716204 56.2128905 187.716204 61.5731825 188.951095 61.5731825 188.951095 59.1949343 190.873285 61.5731825 192.466277 61.5731825 190.126569 58.7533285 192.296058 56.2128905 190.786569 56.2128905 188.951095 58.4466131 188.951095 56.2128905zM150.022336 56.2128905L148.890219 56.2128905 146.728759 61.5731825 148.013431 61.5731825 148.424526 60.5615036 150.449489 60.5615036 150.852555 61.5731825 152.137226 61.5731825 150.022336 56.2128905zM168.99854 56.2128905L167.713869 56.2128905 169.538102 61.5731825 170.585109 61.5731825 171.709197 58.318146 172.833285 61.5731825 173.878686 61.5731825 175.70292 56.2128905 174.418248 56.2128905 173.276 59.7634453 172.134745 56.2128905 171.28365 56.2128905 170.14 59.7634453 168.99854 56.2128905zM95.4494891 56.2128905L93.809927 56.2128905 93.809927 61.5731825 95.8268613 61.5731825C96.1576642 61.5731825 96.8 61.5410657 97.2432117 61.1155182 97.4519708 60.9067591 97.6591241 60.5695328 97.6591241 60.0315766 97.6591241 59.5562482 97.4905109 59.2511387 97.3154745 59.0744964 97.1227737 58.8817956 96.8321168 58.7533285 96.5767883 58.7131825 96.7036496 58.6569781 96.8883212 58.5445693 97.0248175 58.3197518 97.1693431 58.0852993 97.2014599 57.8444234 97.2014599 57.6356642 97.2014599 57.4012117 97.1613139 56.9515766 96.8160584 56.6223796 96.3985401 56.2289489 95.7385401 56.2128905 95.4494891 56.2128905zM115.763358 56.2128905L114.526861 56.2128905 114.526861 61.5731825 115.763358 61.5731825 115.763358 56.2128905zM113.850803 56.2128905L110.281022 56.2128905 110.281022 57.2566861 111.446861 57.2566861 111.446861 61.5731825 112.684964 61.5731825 112.684964 57.2566861 113.850803 57.2566861 113.850803 56.2128905zM216.59562 56.2128905L213.565401 56.2128905 213.565401 61.5731825 216.59562 61.5731825 216.59562 60.5293869 214.805109 60.5293869 214.805109 59.3394599 216.507299 59.3394599 216.507299 58.2956642 214.805109 58.2956642 214.805109 57.2566861 216.59562 57.2566861 216.59562 56.2128905zM206.144818 56.2128905L205.012701 56.2128905 202.849635 61.5731825 204.134307 61.5731825 204.545401 60.5615036 206.573577 60.5615036 206.975036 61.5731825 208.259708 61.5731825 206.144818 56.2128905zM201.194015 56.2128905L199.303942 56.2128905 199.303942 61.5731825 200.542044 61.5731825 200.542044 59.6927445 201.3 59.6927445C201.675766 59.6927445 202.23781 59.6525985 202.664964 59.2190219 202.865693 59.0102628 203.122628 58.6328905 203.122628 57.9568321 203.122628 57.5874891 203.058394 57.0559562 202.60073 56.6544964 202.173577 56.2771241 201.659708 56.2128905 201.194015 56.2128905zM132.236058 56.2128905L129.205839 56.2128905 129.205839 61.5731825 132.236058 61.5731825 132.236058 60.5293869 130.442336 60.5293869 130.442336 59.3394599 132.146131 59.3394599 132.146131 58.2956642 130.442336 58.2956642 130.442336 57.2566861 132.236058 57.2566861 132.236058 56.2128905zM136.904234 56.2128905L135.023796 56.2128905 135.023796 61.5731825 136.261898 61.5731825 136.261898 59.4598978 137.708759 61.5731825 139.218248 61.5731825 137.572263 59.3796058C137.869343 59.3073431 138.135912 59.1467591 138.318978 58.9701168 138.665839 58.6328905 138.738102 58.2137664 138.738102 57.8765401 138.738102 57.2807737 138.49562 56.8953723 138.270803 56.6785839 138.013869 56.437708 137.589927 56.2128905 136.904234 56.2128905zM184.714891 56.2128905L182.834453 56.2128905 182.834453 61.5731825 184.072555 61.5731825 184.072555 59.4598978 185.519416 61.5731825 187.030511 61.5731825 185.38292 59.3796058C185.68 59.3073431 185.944964 59.1467591 186.129635 58.9701168 186.476496 58.6328905 186.548759 58.2137664 186.548759 57.8765401 186.548759 57.2807737 186.307883 56.8953723 186.08146 56.6785839 185.824526 56.437708 185.398978 56.2128905 184.714891 56.2128905zM142.932555 56.2128905L139.902336 56.2128905 139.902336 61.5731825 142.932555 61.5731825 142.932555 60.5293869 141.142044 60.5293869 141.142044 59.3394599 142.844234 59.3394599 142.844234 58.2956642 141.142044 58.2956642 141.142044 57.2566861 142.932555 57.2566861 142.932555 56.2128905zM146.984088 56.2128905L143.417518 56.2128905 143.417518 57.2566861 144.581752 57.2566861 144.581752 61.5731825 145.819854 61.5731825 145.819854 57.2566861 146.984088 57.2566861 146.984088 56.2128905zM156.437664 56.2128905L155.201168 56.2128905 155.201168 61.5731825 158.10292 61.5731825 158.10292 60.5293869 156.437664 60.5293869 156.437664 56.2128905zM154.003212 56.2128905L152.765109 56.2128905 152.765109 61.5731825 154.003212 61.5731825 154.003212 56.2128905zM162.26365 59.2350803L163.188613 60.2708467C163.011971 60.4250073 162.714891 60.6257372 162.361606 60.6257372 162.152847 60.6257372 161.966569 60.5615036 161.838102 60.4490949 161.733723 60.3527445 161.645401 60.208219 161.645401 60.0315766 161.645401 59.8950803 161.679124 59.718438 161.830073 59.548219 161.934453 59.427781 162.127153 59.3073431 162.26365 59.2350803zM95.3708029 59.3073431C95.6181022 59.3073431 96.0388321 59.3073431 96.2540146 59.508073 96.3343066 59.5803358 96.4226277 59.7248613 96.4226277 59.9432555 96.4226277 60.1359562 96.3583942 60.2885109 96.2475912 60.3928905 96.0211679 60.6016496 95.6437956 60.6096788 95.3290511 60.6096788L95.030365 60.6096788 95.030365 59.3073431 95.3708029 59.3073431zM101.252993 57.2325985C101.74438 57.2325985 102.169927 57.4333285 102.434891 57.6918686 102.677372 57.9327445 102.90219 58.3422336 102.90219 58.897854 102.90219 59.5161022 102.645255 59.8950803 102.434891 60.0958102 102.177956 60.3527445 101.794161 60.5534745 101.244964 60.5534745 100.827445 60.5534745 100.442044 60.4410657 100.095182 60.1118686 99.7659854 59.7907007 99.6054015 59.3956642 99.6054015 58.9058832 99.6054015 58.3101168 99.8462774 57.9166861 100.079124 57.6918686 100.368175 57.4012117 100.788905 57.2325985 101.252993 57.2325985zM178.991679 57.2325985C179.484672 57.2325985 179.908613 57.4333285 180.173577 57.6918686 180.416058 57.9327445 180.640876 58.3422336 180.640876 58.897854 180.640876 59.5161022 180.382336 59.8950803 180.173577 60.0958102 179.916642 60.3527445 179.531241 60.5534745 178.98365 60.5534745 178.566131 60.5534745 178.179124 60.4410657 177.833869 60.1118686 177.504672 59.7907007 177.345693 59.3956642 177.345693 58.9058832 177.345693 58.3101168 177.584964 57.9166861 177.81781 57.6918686 178.106861 57.4012117 178.525985 57.2325985 178.991679 57.2325985zM119.62219 57.2325985C120.067007 57.2325985 120.498978 57.3931825 120.805693 57.707927 121.030511 57.9327445 121.264964 58.318146 121.264964 58.8898248 121.264964 59.2912847 121.150949 59.5803358 120.948613 59.8549343L120.468467 59.3394599 119.268905 59.467927 120.234015 60.4169781C120.025255 60.5133285 119.814891 60.5534745 119.591679 60.5534745 119.068175 60.5534745 118.697226 60.3527445 118.432263 60.0797518 118.135182 59.7666131 117.984234 59.3474891 117.984234 58.9139124 117.984234 58.4947883 118.143212 58.0210657 118.448321 57.707927 118.705255 57.4413577 119.125985 57.2325985 119.62219 57.2325985zM149.452263 57.8123066L150.113869 59.6140584 148.785839 59.6140584 149.452263 57.8123066zM205.57635 57.8123066L206.233139 59.6140584 204.909927 59.6140584 205.57635 57.8123066zM200.961168 57.2245693C201.202044 57.2245693 201.467007 57.2486569 201.651679 57.4252993 201.772117 57.5393139 201.852409 57.7239854 201.852409 57.9488029 201.852409 58.1816496 201.765693 58.367927 201.651679 58.4803358 201.450949 58.6730365 201.155474 58.6810657 200.98365 58.6810657L200.542044 58.6810657 200.542044 57.2245693 200.961168 57.2245693zM184.363212 57.1763942C184.52219 57.1763942 184.844964 57.1924526 185.045693 57.3450073 185.150073 57.4252993 185.296204 57.5874891 185.296204 57.8925985 185.296204 58.157562 185.18219 58.3261752 185.095474 58.4161022 184.885109 58.6248613 184.578394 58.6489489 184.353577 58.6489489L184.072555 58.6489489 184.072555 57.1763942 184.363212 57.1763942zM136.549343 57.1763942C136.711533 57.1763942 137.032701 57.1924526 137.233431 57.3450073 137.33781 57.4252993 137.483942 57.5874891 137.483942 57.8925985 137.483942 58.157562 137.369927 58.3261752 137.281606 58.4161022 137.072847 58.6248613 136.767737 58.6489489 136.541314 58.6489489L136.261898 58.6489489 136.261898 57.1763942 136.549343 57.1763942zM95.2246715 57.1763942C95.4494891 57.1763942 95.690365 57.1763942 95.8670073 57.3128905 95.9633577 57.3851533 96.0773723 57.5312847 96.0773723 57.7641314 96.0773723 57.9969781 95.9729927 58.157562 95.8589781 58.237854 95.6823358 58.367927 95.4013139 58.3920146 95.2343066 58.3920146L95.030365 58.3920146 95.030365 57.1763942 95.2246715 57.1763942zM162.787153 56.9435474C162.971825 56.9435474 163.085839 57.0158102 163.150073 57.0720146 163.228759 57.1523066 163.286569 57.2727445 163.286569 57.4172701 163.286569 57.5874891 163.212701 57.748073 163.11635 57.8604818 163.028029 57.9648613 162.867445 58.0852993 162.738978 58.1495328 162.730949 58.1415036 162.555912 57.9728905 162.433869 57.7962482 162.355182 57.6758102 162.295766 57.5537664 162.295766 57.4012117 162.295766 57.2727445 162.345547 57.1442774 162.449927 57.0559562 162.562336 56.9596058 162.692409 56.9435474 162.787153 56.9435474zM18.078219 26.8000146C22.4974891 26.8000146 25.4891679 29.5588467 25.4891679 33.946 25.4891679 38.4985547 22.7640584 41.2895036 18.0444964 41.2895036L18.0444964 41.2895036 12.8929635 41.2895036 12.8929635 49.1998686 11.6644964 49.1998686 11.6644964 40.0931533 18.0444964 40.0931533C21.9659562 40.0931533 24.2928175 37.7341752 24.2928175 33.946 24.2928175 30.3232263 21.7668321 27.996365 18.078219 27.996365L18.078219 27.996365 10.7331095 27.996365 10.7331095 49.1998686 9.5030365 49.1998686 9.5030365 26.8000146zM37.0865401 26.6346131L46.0936934 49.1998686 44.698219 49.1998686 36.2225985 27.8309635 34.9266861 27.8309635 26.3868321 49.1998686 24.9897518 49.1998686 34.0290219 26.6346131 37.0865401 26.6346131zM40.7093139 41.7889197L43.6014307 49.1998686 42.238073 49.1998686 39.8453723 42.9852701 31.1385109 42.9852701 28.7458102 49.1998686 27.3824526 49.1998686 30.3404088 41.7889197 40.7093139 41.7889197zM57.957635 39.0975328L64.7037664 49.1998686 63.2071241 49.1998686 57.2928175 40.2601606 53.3039124 40.2601606 53.3039124 49.1998686 52.0754453 49.1998686 52.0754453 39.0975328 57.957635 39.0975328zM58.4554453 26.8000146C62.3415766 26.8000146 65.5339854 29.1927153 65.5339854 33.4465839 65.5339854 36.936073 63.6069781 38.9642482 61.0472701 39.7944672L61.0472701 39.7944672 67.4609927 49.1998686 65.9322336 49.1998686 59.0207007 39.0638102C61.5466861 38.7972409 64.3039124 37.236365 64.3039124 33.4465839 64.3039124 30.0245401 61.678365 27.9642482 58.4554453 27.9642482L58.4554453 27.9642482 51.1440584 27.9642482 51.1440584 49.1998686 49.9139854 49.1998686 49.9139854 26.8000146zM81.0544234 26.6346131L90.0599708 49.1998686 88.6644964 49.1998686 80.1888759 27.8309635 78.8929635 27.8309635 70.3531095 49.1998686 68.957635 49.1998686 77.9969051 26.6346131 81.0544234 26.6346131zM84.6755912 41.7889197L87.5661022 49.1998686 86.2043504 49.1998686 83.8116496 42.9852701 75.1047883 42.9852701 72.7104818 49.1998686 71.3503358 49.1998686 74.3066861 41.7889197 84.6755912 41.7889197zM102.921139 26.8000146C110.198803 26.8000146 113.555007 31.8519854 113.555007 37.9670219 113.555007 44.1141752 109.965956 49.1998686 102.921139 49.1998686L102.921139 49.1998686 93.8818686 49.1998686 93.8818686 26.8000146zM132.063912 26.8000146L132.063912 27.996365 119.403474 27.996365 119.403474 48.0035182 132.72873 48.0035182 132.72873 49.1998686 118.173401 49.1998686 118.173401 26.8000146 132.063912 26.8000146zM102.921139 27.996365L95.1103358 27.996365 95.1103358 48.0035182 102.921139 48.0035182C109.134131 48.0035182 112.323328 43.4172409 112.323328 37.9670219 112.323328 32.5505255 109.334861 27.996365 102.921139 27.996365L102.921139 27.996365zM102.754131 28.8603066C107.971504 28.8603066 111.295591 32.3835182 111.295591 38.0007445 111.295591 43.3835182 108.403474 47.1395766 102.754131 47.1395766L102.754131 47.1395766 96.0417226 47.1395766 96.0417226 28.8603066zM131.068292 38.0328613L131.068292 39.1970949 121.563328 39.1970949 121.563328 45.9432263 132.72873 45.9432263 132.72873 47.1395766 120.333255 47.1395766 120.333255 38.0328613 131.068292 38.0328613zM102.754131 30.0582628L97.2685839 30.0582628 97.2685839 45.9432263 102.754131 45.9432263C107.606978 45.9432263 110.065518 42.6528613 110.065518 38.0007445 110.065518 33.1478978 107.239241 30.0582628 102.754131 30.0582628L102.754131 30.0582628zM35.557781 28.7286277L40.4106277 41.0582628 30.6407007 41.0582628 35.557781 28.7286277zM79.5256642 28.7286277L84.3769051 41.0582628 74.6069781 41.0582628 79.5256642 28.7286277zM35.5256642 31.6865839L32.3669781 39.8940292 38.6827445 39.8940292 35.5256642 31.6865839zM79.4919416 31.6865839L76.3348613 39.8940292 82.6490219 39.8940292 79.4919416 31.6865839zM17.9786569 28.8281898C21.2352993 28.8281898 23.3293139 30.8547591 23.3293139 34.0118394 23.3293139 37.4354891 21.5002628 39.2629343 17.9449343 39.2629343L17.9449343 39.2629343 11.6644964 39.2629343 11.6644964 28.8281898zM58.3558832 28.7944672C61.1468321 28.7944672 63.3404088 30.5223504 63.3404088 33.4803066 63.3404088 36.8702336 61.1147153 38.3331533 58.1567591 38.3331533L58.1567591 38.3331533 52.0754453 38.3331533 52.0754453 28.7944672zM17.9786569 29.9570949L12.8929635 29.9570949 12.8929635 38.1003066 17.9449343 38.1003066C20.7037664 38.1003066 22.0992409 36.6036642 22.0992409 34.0118394 22.0992409 31.5854161 20.5046423 29.9570949 17.9786569 29.9570949L17.9786569 29.9570949zM132.063912 28.8603066L132.063912 30.0582628 121.563328 30.0582628 121.563328 36.0400146 131.068292 36.0400146 131.068292 37.2026423 120.333255 37.2026423 120.333255 28.8603066 132.063912 28.8603066zM58.3558832 29.9908175L53.3039124 29.9908175 53.3039124 37.1689197 58.1567591 37.1689197C60.4498978 37.1689197 62.1103358 35.9725693 62.1103358 33.4803066 62.1103358 31.2867299 60.4820146 29.9908175 58.3558832 29.9908175L58.3558832 29.9908175zM183.940555 1.52859854C191.284058 1.52859854 194.940555 7.07837956 194.940555 13.1934161 194.940555 19.2426131 191.385226 24.7923942 184.006394 24.7923942 176.629168 24.7923942 173.006394 19.2426131 173.006394 13.1275766 173.006394 7.07837956 176.563328 1.52859854 183.940555 1.52859854zM142.53238 1.52859854C146.421723 1.52859854 149.079387 3.02524088 150.908438 5.41794161L150.908438 5.41794161 150.010774 6.21443796C147.817197 3.69005839 145.989752 2.72494891 142.53238 2.72494891 136.319387 2.72494891 133.42727 7.84275912 133.42727 13.1934161 133.42727 19.6408613 137.115883 23.5960438 143.463766 23.5960438 145.723182 23.5960438 147.982599 23.2299124 149.911212 22.5329781L149.911212 22.5329781 149.911212 14.2580876 141.602599 14.2580876 141.602599 13.093854 151.139679 13.093854 151.139679 23.4290365C148.714861 24.3925401 146.055591 24.7923942 143.463766 24.7923942 136.319387 24.7923942 132.16508 20.4052409 132.16508 13.1934161 132.16508 7.24538686 135.453839 1.52859854 142.53238 1.52859854zM18.078219 1.96056934C22.4974891 1.96056934 25.4891679 4.71940146 25.4891679 9.10655474 25.4891679 13.6591095 22.7640584 16.4500584 18.0444964 16.4500584L18.0444964 16.4500584 12.8929635 16.4500584 12.8929635 24.3604234 11.6644964 24.3604234 11.6644964 15.253708 18.0444964 15.253708C21.9659562 15.253708 24.2928175 12.8947299 24.2928175 9.10655474 24.2928175 5.48378102 21.7668321 3.15691971 18.078219 3.15691971L18.078219 3.15691971 10.7331095 3.15691971 10.7331095 24.3604234 9.5030365 24.3604234 9.5030365 1.96056934zM127.509752 1.96056934L127.509752 24.3604234 124.654569 24.3604234 111.825518 8.04348905 111.825518 24.3604234 110.629168 24.3604234 110.629168 4.32115328 125.319387 23.164073 126.315007 23.164073 126.315007 1.96056934 127.509752 1.96056934zM218.535153 1.96056934L218.535153 24.3604234 215.678365 24.3604234 202.849314 8.04348905 202.849314 24.3604234 201.651358 24.3604234 201.651358 4.32115328 216.341577 23.164073 217.338803 23.164073 217.338803 1.96056934 218.535153 1.96056934zM37.0865401 1.79516788L46.0936934 24.3604234 44.698219 24.3604234 36.2225985 2.99151825 34.9266861 2.99151825 26.3868321 24.3604234 24.9897518 24.3604234 34.0290219 1.79516788 37.0865401 1.79516788zM40.7093139 16.9494745L43.6014307 24.3604234 42.238073 24.3604234 39.8453723 18.1458248 31.1385109 18.1458248 28.7458102 24.3604234 27.3824526 24.3604234 30.3404088 16.9494745 40.7093139 16.9494745zM202.516905 1.96056934L215.278511 18.3112263 215.278511 1.96056934 216.474861 1.96056934 216.474861 21.8007153 201.88581 3.15691971 200.789022 3.15691971 200.789022 24.3604234 199.592672 24.3604234 199.592672 1.96056934 202.516905 1.96056934zM58.9532555 1.96056934C66.2325255 1.96056934 69.5887299 7.01254015 69.5887299 13.1275766 69.5887299 19.2747299 65.9996788 24.3604234 58.9532555 24.3604234L58.9532555 24.3604234 49.9139854 24.3604234 49.9139854 1.96056934zM83.2801168 1.96056934C90.557781 1.96056934 93.9139854 7.01254015 93.9139854 13.1275766 93.9139854 19.2747299 90.3249343 24.3604234 83.2801168 24.3604234L83.2801168 24.3604234 74.2408467 24.3604234 74.2408467 1.96056934zM162.406248 4.02086131L162.406248 24.3604234 161.176175 24.3604234 161.176175 5.21881752 153.399095 5.21881752 153.399095 4.02086131 162.406248 4.02086131zM111.493109 1.96056934L124.254715 18.3112263 124.254715 1.96056934 125.451066 1.96056934 125.451066 21.8007153 110.862015 3.15691971 109.765226 3.15691971 109.765226 24.3604234 108.568876 24.3604234 108.568876 1.96056934 111.493109 1.96056934zM172.341577 4.02086131L172.341577 5.21881752 164.566102 5.21881752 164.566102 24.3604234 163.336029 24.3604234 163.336029 4.02086131 172.341577 4.02086131zM99.7961752 1.96056934L99.7961752 24.3588175 98.5661022 24.3588175 98.5661022 1.96056934 99.7961752 1.96056934zM101.923912 1.96056934L101.923912 24.3588175 100.693839 24.3588175 100.693839 1.96056934 101.923912 1.96056934zM183.940555 2.72494891C177.425664 2.72494891 174.27019 7.71108029 174.27019 13.1275766 174.27019 18.6115182 177.459387 23.5960438 184.006394 23.5960438 190.521285 23.5960438 193.678365 18.6115182 193.678365 13.1934161 193.678365 7.71108029 190.487562 2.72494891 183.940555 2.72494891zM58.9532555 3.15691971L51.1440584 3.15691971 51.1440584 23.164073 58.9532555 23.164073C65.167854 23.164073 68.3586569 18.5777956 68.3586569 13.1275766 68.3586569 7.71108029 65.3685839 3.15691971 58.9532555 3.15691971L58.9532555 3.15691971zM83.2801168 3.15691971L75.4709197 3.15691971 75.4709197 23.164073 83.2801168 23.164073C89.4947153 23.164073 92.6855182 18.5777956 92.6855182 13.1275766 92.6855182 7.71108029 89.6938394 3.15691971 83.2801168 3.15691971L83.2801168 3.15691971zM142.599825 3.55677372C145.358657 3.55677372 147.418949 4.3869927 149.312234 6.81341606L149.312234 6.81341606 148.34873 7.67735766C146.985372 5.78246715 145.092088 4.75312409 142.599825 4.75312409 137.84654 4.75312409 135.720409 8.97327007 135.720409 13.1612993 135.720409 18.2453869 138.280117 21.6015912 143.662891 21.6015912 145.058365 21.6015912 146.654569 21.4361898 147.817197 21.0700584L147.817197 21.0700584 147.817197 16.2509343 141.602599 16.2509343 141.602599 15.0883066 149.04727 15.0883066 149.04727 21.9677226C147.351504 22.5650949 145.390774 22.7979416 143.662891 22.7979416 137.412964 22.7979416 134.458219 18.9760438 134.458219 13.1612993 134.458219 8.37589781 136.982599 3.55677372 142.599825 3.55677372zM183.940555 3.55677372C190.055591 3.55677372 192.647416 8.44173723 192.647416 13.1612993 192.647416 17.9129781 190.121431 22.764219 184.006394 22.764219 177.891358 22.764219 175.299533 17.8792555 175.299533 13.1612993 175.299533 8.4080146 177.825518 3.55677372 183.940555 3.55677372zM58.787854 4.02086131C64.0052263 4.02086131 67.3293139 7.54407299 67.3293139 13.1612993 67.3293139 18.544073 64.4371971 22.3001314 58.787854 22.3001314L58.787854 22.3001314 52.0754453 22.3001314 52.0754453 4.02086131zM83.1131095 4.02086131C88.3320876 4.02086131 91.6545693 7.54407299 91.6545693 13.1612993 91.6545693 18.544073 88.7640584 22.3001314 83.1131095 22.3001314L83.1131095 22.3001314 76.4007007 22.3001314 76.4007007 4.02086131zM183.940555 4.75312409C178.789022 4.75312409 176.563328 9.0069927 176.563328 13.1612993 176.563328 17.2481606 178.822745 21.5678686 184.006394 21.5678686 189.157927 21.5678686 191.385226 17.314 191.385226 13.1612993 191.385226 9.07283212 189.124204 4.75312409 183.940555 4.75312409zM83.1131095 5.21881752L77.6307737 5.21881752 77.6307737 21.103781 83.1131095 21.103781C87.9659562 21.103781 90.4244964 17.8134161 90.4244964 13.1612993 90.4244964 8.30845255 87.5998248 5.21881752 83.1131095 5.21881752L83.1131095 5.21881752zM58.787854 5.21881752L53.3039124 5.21881752 53.3039124 21.103781 58.787854 21.103781C63.6390949 21.103781 66.0992409 17.8134161 66.0992409 13.1612993 66.0992409 8.30845255 63.2745693 5.21881752 58.787854 5.21881752L58.787854 5.21881752zM35.557781 3.88918248L40.4106277 16.2188175 30.6407007 16.2188175 35.557781 3.88918248zM35.5256642 6.84713869L32.3669781 15.0545839 38.6827445 15.0545839 35.5256642 6.84713869zM17.9786569 3.98874453C21.2352993 3.98874453 23.3293139 6.01531387 23.3293139 9.17239416 23.3293139 12.5960438 21.5002628 14.4234891 17.9449343 14.4234891L17.9449343 14.4234891 11.6644964 14.4234891 11.6644964 3.98874453zM17.9786569 5.11764964L12.8929635 5.11764964 12.8929635 13.2608613 17.9449343 13.2608613C20.7037664 13.2608613 22.0992409 11.764219 22.0992409 9.17239416 22.0992409 6.7459708 20.5046423 5.11764964 17.9786569 5.11764964L17.9786569 5.11764964zM172.341577 1.96056934L172.341577 3.15691971 153.399095 3.15691971 153.399095 1.96056934 172.341577 1.96056934z" transform="translate(0 .931)"/>
</svg>
