<svg xmlns="http://www.w3.org/2000/svg" width="222" height="52" viewBox="0 0 222 52">
  <path fill="#FFF" fill-rule="evenodd" d="M126.388812,37.6849052 C127.871946,37.6849052 129.128781,38.0556888 130.077499,38.6127345 C130.592767,38.9208504 130.860845,39.1889287 130.860845,39.457007 C130.860845,39.7459745 130.613656,40.1167581 130.303799,40.1167581 C129.995683,40.1167581 129.623159,39.704196 128.778887,39.3334125 C128.037319,39.0044073 127.170417,38.8390343 126.326144,38.8390343 L126.326144,38.8390343 L126.149059,38.8415048 C123.611266,38.9124739 121.110803,40.5188755 121.110803,44.4860857 C121.110803,48.6917812 123.915181,50.4221046 126.491517,50.4221046 L126.491517,50.4221046 L126.805182,50.4136115 C127.530021,50.3743423 128.204215,50.2014622 128.799776,49.9486157 C129.706716,49.5778321 130.035721,49.1861593 130.345578,49.1861593 L130.345578,49.1861593 L130.4353,49.1956604 C130.694462,49.25156 130.860845,49.5440612 130.860845,49.804132 C130.860845,50.0722102 130.674583,50.2985101 130.221983,50.5874775 C129.088743,51.3081555 127.727463,51.5762338 126.491517,51.5762338 C123.048278,51.5762338 119.730374,49.3706807 119.730374,44.5487534 C119.730374,39.7250853 123.02913,37.6849052 126.388812,37.6849052 Z M109.774922,37.8293889 L109.887137,37.83642 C110.241765,37.8829931 110.407929,38.1579193 110.558268,38.5709561 L110.558268,38.5709561 L115.133006,50.5874775 C115.195674,50.7528505 115.237452,50.9164827 115.237452,51.0400772 C115.237452,51.2890071 115.05119,51.4526392 114.617739,51.4526392 C114.165139,51.4526392 113.978877,51.2472286 113.815245,50.8137774 L113.815245,50.8137774 L112.164997,46.4444497 L107.156807,46.4444497 L105.487411,50.8137774 C105.342927,51.2054502 105.198443,51.4526392 104.704065,51.4526392 C104.291503,51.4526392 104.127871,51.2890071 104.127871,51.0609664 C104.127871,50.9373719 104.167909,50.8137774 104.251465,50.5874775 L104.251465,50.5874775 L108.991577,38.5500669 C109.15695,38.1166156 109.341471,37.8293889 109.774922,37.8293889 L109.774922,37.8293889 Z M81.7642245,37.8502781 L82.0664076,37.8541289 C83.3645143,37.8877935 84.5125241,38.14596 85.4128742,38.7763667 C86.3807412,39.457007 87.0196031,40.5084309 87.0196031,41.9915652 C87.0196031,45.1249476 84.2169666,46.1763714 81.475257,46.1763714 C80.9391005,46.1763714 80.5474277,46.134593 80.5474277,46.134593 L80.5474277,46.134593 L80.5474277,50.7110721 C80.5474277,50.9164827 80.5474277,51.1027449 80.4447224,51.2472286 C80.342017,51.3917124 80.1557549,51.4526392 79.8876766,51.4526392 C79.6195983,51.4526392 79.4350769,51.3917124 79.3323716,51.2472286 C79.2296663,51.1027449 79.2296663,50.9164827 79.2296663,50.7110721 L79.2296663,50.7110721 L79.2296663,38.9626289 C79.2296663,38.4682508 79.2296663,38.2001725 79.8267497,38.0347995 C80.2393117,37.9320942 80.9599897,37.8502781 81.7642245,37.8502781 L81.7642245,37.8502781 Z M142.670215,37.9930211 C142.877367,37.9930211 143.042739,37.9930211 143.185482,38.0974672 C143.309077,38.1792833 143.392634,38.3446562 143.392634,38.5709561 C143.392634,38.7972559 143.309077,38.9626289 143.185482,39.044445 C143.042739,39.1488911 142.877367,39.1488911 142.670215,39.1488911 L142.670215,39.1488911 L138.321777,39.1488911 L138.321777,43.5182187 L141.907759,43.5182187 C142.11491,43.5182187 142.278542,43.5182187 142.423026,43.620924 C142.546621,43.7027401 142.630177,43.8681131 142.630177,44.0944129 C142.630177,44.3207128 142.546621,44.4860857 142.423026,44.5696426 C142.278542,44.6723479 142.11491,44.6723479 141.907759,44.6723479 L141.907759,44.6723479 L138.321777,44.6723479 L138.321777,50.1749155 L143.428522,50.1757372 C143.581542,50.1790237 143.710498,50.1954566 143.826085,50.2776208 C143.94968,50.3611777 144.031496,50.5248099 144.031496,50.7528505 C144.031496,50.9791503 143.94968,51.1445233 143.826085,51.2263394 C143.681601,51.3290447 143.516228,51.3290447 143.309077,51.3290447 L143.309077,51.3290447 L137.662026,51.3290447 C137.188537,51.3290447 137.023164,51.1236341 137.023164,50.6901829 L137.023164,50.6901829 L137.023164,38.631883 C137.023164,38.1792833 137.188537,37.9930211 137.662026,37.9930211 L137.662026,37.9930211 Z M93.615373,37.8502781 C93.8834513,37.8502781 94.0697135,37.911205 94.1724188,38.0556888 C94.2751241,38.2001725 94.2751241,38.3846939 94.2751241,38.5918453 L94.2751241,38.5918453 L94.2751241,50.1749155 L99.196498,50.1757372 C99.3486272,50.1790237 99.4775833,50.1954566 99.5931703,50.2776208 C99.7167648,50.3611777 99.7985809,50.5248099 99.7985809,50.7528505 C99.7985809,50.9791503 99.7167648,51.1445233 99.5931703,51.2263394 C99.4486866,51.3290447 99.2833136,51.3290447 99.077903,51.3290447 L99.077903,51.3290447 L93.5944838,51.3290447 C93.1001057,51.3290447 92.9556219,51.1236341 92.9556219,50.6901829 L92.9556219,50.6901829 L92.9556219,38.5918453 C92.9556219,38.3846939 92.9556219,38.2001725 93.0583273,38.0556888 C93.1627733,37.911205 93.3472947,37.8502781 93.615373,37.8502781 Z M217.899245,38.151431 C219.037707,38.151431 220.031686,38.7485144 220.031686,40.019275 C220.031686,41.8314145 217.998469,42.4389426 216.562335,44.8359801 L216.562335,44.8359801 L219.876757,44.8359801 C219.988166,44.8359801 220.076946,44.8359801 220.153539,44.8916847 C220.219689,44.9352039 220.264949,45.023983 220.264949,45.1458368 C220.264949,45.2676906 220.219689,45.3564697 220.153539,45.3999889 C220.115242,45.4278412 220.073899,45.4417674 220.028204,45.4487304 L219.956234,45.4548231 L219.956234,45.4548231 L216.109735,45.4556935 C215.954807,45.4556935 215.756359,45.4330635 215.756359,45.189356 C215.756359,44.7593863 216.396962,43.8646316 217.103714,43.0795452 C218.297881,41.75308 219.314489,41.1786265 219.314489,40.0854242 C219.314489,39.2672633 218.75048,38.7920336 217.84354,38.7920336 L217.84354,38.7920336 L217.668041,38.7982847 C217.161264,38.8355876 216.826932,39.0380041 216.52926,39.3560424 C216.384777,39.5109708 216.318627,39.5980092 216.163699,39.5980092 C215.965252,39.5980092 215.843398,39.4430808 215.843398,39.2898933 C215.843398,39.0566303 216.14281,38.7154398 216.562335,38.4821769 C216.915711,38.2837294 217.368311,38.151431 217.899245,38.151431 Z M211.987597,38.151431 C213.126059,38.151431 214.120037,38.7485144 214.120037,40.019275 C214.120037,41.8314145 212.08682,42.4389426 210.650687,44.8359801 L210.650687,44.8359801 L213.965109,44.8359801 C214.076518,44.8359801 214.165297,44.8359801 214.241891,44.8916847 C214.30804,44.9352039 214.35156,45.023983 214.35156,45.1458368 C214.35156,45.2676906 214.30804,45.3564697 214.241891,45.3999889 C214.203594,45.4278412 214.162251,45.4417674 214.116556,45.4487304 L214.044586,45.4548231 L214.044586,45.4548231 L210.198087,45.4556935 C210.043159,45.4556935 209.844711,45.4330635 209.844711,45.189356 C209.844711,44.7593863 210.485314,43.8646316 211.192066,43.0795452 C212.386233,41.75308 213.402841,41.1786265 213.402841,40.0854242 C213.402841,39.2672633 212.838832,38.7920336 211.931892,38.7920336 L211.931892,38.7920336 L211.756393,38.7982847 C211.249616,38.8355876 210.915284,39.0380041 210.617612,39.3560424 C210.473129,39.5109708 210.406979,39.5980092 210.252051,39.5980092 C210.053603,39.5980092 209.93175,39.4430808 209.93175,39.2898933 C209.93175,39.0566303 210.231162,38.7154398 210.650687,38.4821769 C211.004063,38.2837294 211.456662,38.151431 211.987597,38.151431 Z M206.075949,38.151431 C207.214411,38.151431 208.208389,38.7485144 208.208389,40.019275 C208.208389,41.8314145 206.175172,42.4389426 204.739039,44.8359801 L204.739039,44.8359801 L208.053461,44.8359801 C208.16487,44.8359801 208.253649,44.8359801 208.330243,44.8916847 C208.396392,44.9352039 208.439912,45.023983 208.439912,45.1458368 C208.439912,45.2676906 208.396392,45.3564697 208.330243,45.3999889 C208.291946,45.4278412 208.250603,45.4417674 208.204908,45.4487304 L208.132938,45.4548231 L208.132938,45.4548231 L204.286439,45.4556935 C204.131511,45.4556935 203.933063,45.4330635 203.933063,45.189356 C203.933063,44.7593863 204.573666,43.8646316 205.280418,43.0795452 C206.474584,41.75308 207.491193,41.1786265 207.491193,40.0854242 C207.491193,39.2672633 206.927184,38.7920336 206.020244,38.7920336 L206.020244,38.7920336 L205.844745,38.7982847 C205.337967,38.8355876 205.003635,39.0380041 204.705964,39.3560424 C204.56148,39.5109708 204.495331,39.5980092 204.340403,39.5980092 C204.141955,39.5980092 204.020102,39.4430808 204.020102,39.2898933 C204.020102,39.0566303 204.319514,38.7154398 204.739039,38.4821769 C205.092415,38.2837294 205.545014,38.151431 206.075949,38.151431 Z M109.712255,39.8486798 L107.590258,45.3112098 L111.754176,45.3112098 L109.712255,39.8486798 Z M81.7642245,38.9626289 L81.6098967,38.9643586 C81.0042711,38.977822 80.5474277,39.0653342 80.5474277,39.0653342 L80.5474277,39.0653342 L80.5474277,45.0222423 C80.5474277,45.0222423 80.9182113,45.0640207 81.4143301,45.0640207 L81.4143301,45.0640207 L81.591189,45.0624347 C83.541773,45.027192 85.6391741,44.393057 85.6391741,42.0124544 C85.6391741,39.9304959 83.9697776,38.9626289 81.7642245,38.9626289 L81.7642245,38.9626289 Z M195.439856,26.6484361 C193.171635,27.9714198 190.224515,28.6137631 187.428842,28.6137631 C178.850337,28.6137631 172.80465,22.5680759 172.80465,14.5936177 C172.80465,6.73405021 178.69889,0.423766231 187.390545,0.423766231 L187.390545,0.423766231 L187.855646,0.430029354 C190.484384,0.500789842 192.990112,1.16736429 195.023813,2.23764648 L195.023813,2.23764648 L195.023813,7.22494679 C193.021929,5.78881319 190.224515,4.76872315 187.390545,4.76872315 L187.390545,4.76872315 L187.098132,4.7723249 C181.474825,4.9113256 177.603947,9.05812301 177.603947,14.5187647 C177.603947,19.9969616 181.571158,24.2305093 187.655142,24.2305093 L187.655142,24.2305093 L188.050599,24.2244417 C190.808557,24.1396945 193.347849,23.1714103 195.439856,21.584542 L195.439856,21.584542 Z M23.0150454,26.6484361 C20.7468247,27.9714198 17.7997045,28.6137631 15.0040311,28.6137631 C6.42552644,28.6137631 0.37983919,22.5680759 0.37983919,14.5936177 C0.37983919,6.73405021 6.27407962,0.423766231 14.9657342,0.423766231 L14.9657342,0.423766231 L15.4305763,0.430029354 C18.0580205,0.500789842 20.5653013,1.16736429 22.5990019,2.23764648 L22.5990019,2.23764648 L22.5990019,7.22494679 C20.5953779,5.78881319 17.7997045,4.76872315 14.9657342,4.76872315 L14.9657342,4.76872315 L14.6733216,4.7723249 C9.05001448,4.9113256 5.17913655,9.05812301 5.17913655,14.5187647 C5.17913655,19.9969616 9.14634681,24.2305093 15.230331,24.2305093 L15.230331,24.2305093 L15.6255716,24.2244417 C18.3821605,24.1396945 20.9230379,23.1714103 23.0150454,21.584542 L23.0150454,21.584542 Z M96.512011,0.839809782 C99.3076844,0.839809782 102.028505,1.02781273 104.181835,2.19934959 C106.411759,3.40918334 108.112489,5.60081025 108.112489,8.8508241 C108.112489,12.5534376 105.882565,15.4257048 102.028505,16.3692011 L102.028505,16.3692011 L110.265819,28.1977196 L104.636175,28.1977196 L97.0029075,16.8983945 L93.3368501,16.8983945 L93.3368501,28.1977196 L88.5375528,28.1977196 L88.5375528,0.839809782 Z M220.002093,0.839809782 L220.002093,5.10991367 L208.476468,5.10991367 L208.476468,11.9110942 L218.491106,11.9110942 L218.491106,15.9914544 L208.476468,15.9914544 L208.476468,23.9276157 L220.379839,23.9276157 L220.379839,28.1977196 L203.67717,28.1977196 L203.67717,0.839809782 L220.002093,0.839809782 Z M69.8712976,0.839809782 L81.0557319,28.1977196 L75.9552817,28.1977196 L73.3476112,21.509689 L61.5573896,21.509689 L58.913163,28.1977196 L53.9624188,28.1977196 L65.1851501,0.839809782 L69.8712976,0.839809782 Z M165.587426,28.1977196 L161.052725,28.1977196 L151.152978,15.0096613 C149.452247,12.7431813 147.864667,10.5881106 146.277086,8.39648365 L146.277086,8.39648365 L146.202233,8.43478054 C146.277086,11.0041541 146.277086,13.7998275 146.277086,16.7103916 L146.277086,28.1977196 L141.629236,28.1977196 L141.629236,0.839809782 L146.163936,0.839809782 L156.065425,14.0278681 C157.764414,16.294348 159.351995,18.4476781 160.939575,20.639305 L160.939575,20.639305 L161.014428,20.6027488 C160.939575,18.0333753 160.939575,15.2359611 160.939575,12.3271378 L160.939575,0.839809782 L165.587426,0.839809782 L165.587426,28.1977196 Z M133.203919,0.839809782 L133.203919,5.10991367 L121.678294,5.10991367 L121.678294,11.9110942 L131.691191,11.9110942 L131.691191,15.9914544 L121.678294,15.9914544 L121.678294,23.9276157 L133.581665,23.9276157 L133.581665,28.1977196 L116.878997,28.1977196 L116.878997,0.839809782 L133.203919,0.839809782 Z M36.0516569,0.839809782 L36.0516569,23.9276157 L48.484222,23.9276157 L48.484222,28.1977196 L31.2523596,28.1977196 L31.2523596,0.839809782 L36.0516569,0.839809782 Z M67.4899269,6.13000372 L67.4150739,6.13000372 C66.5081338,8.66108038 65.6394906,11.0041541 64.6942535,13.4603777 L64.6942535,13.4603777 L63.1066731,17.5790348 L71.7983277,17.5790348 L70.2107473,13.4603777 C69.2672511,11.0041541 68.3603109,8.58622736 67.4899269,6.13000372 L67.4899269,6.13000372 Z M96.2474142,5.10991367 L93.3368501,5.10991367 L93.3368501,13.195781 L97.1543543,13.195781 C99.3459813,13.195781 100.818671,12.8928874 101.915355,12.1008379 C102.783998,11.4584946 103.313192,10.5132575 103.313192,9.15197696 C103.313192,7.52784042 102.557698,6.50775037 101.347864,5.86540698 C100.139771,5.22306359 98.6270441,5.10991367 96.2474142,5.10991367 L96.2474142,5.10991367 Z" transform="translate(.62)"/>
</svg>
