<svg xmlns="http://www.w3.org/2000/svg" width="220" height="34" viewBox="0 0 220 34">
  <path fill="#FFF" d="M220.701428,42.2813061 L220.701428,46.8484579 L1.56384215,46.8484579 L1.56384215,42.2813061 L220.701428,42.2813061 Z M183.570004,13.1515421 C185.264804,13.1515421 187.338512,13.5439474 188.5272,14.2771345 L188.5272,14.2771345 L188.5272,18.3486343 C187.515651,17.4760977 185.795884,16.9453553 184.050811,16.9453553 C180.358557,16.9453553 178.410702,19.2970876 178.410702,22.2561539 C178.410702,25.303621 180.459779,27.7693971 184.202307,27.7693971 C185.732788,27.7693971 187.338512,27.3395396 188.5272,26.6441421 L188.5272,26.6441421 L188.5272,30.6400626 C187.376639,31.2851863 185.239498,31.6387896 183.595647,31.6387896 C178.006487,31.6387896 174.213012,27.4407619 174.213012,22.4332929 C174.213012,17.4005184 178.031456,13.1515421 183.570004,13.1515421 Z M101.086284,13.2021533 C102.705167,13.2021533 104.652347,13.5942211 105.992868,14.2390074 L105.992868,14.2390074 L105.992868,18.2980231 C104.740748,17.5267089 103.008497,16.9453553 101.516479,16.9453553 C99.6448783,16.9453553 98.3802739,17.6279312 98.3802739,18.5639004 C98.3802739,21.0421606 107.181556,19.7775562 107.181556,25.7716056 C107.181556,29.0846127 104.500514,31.5122617 100.45432,31.5122617 C97.6217812,31.5122617 95.8767081,30.8549913 94.5867982,30.2351732 L94.5867982,30.2351732 L94.5867982,26.024324 C95.9904146,26.9349877 97.6342653,27.6681748 99.8220174,27.6681748 C101.162201,27.6681748 103.033802,27.2639602 103.033802,26.1002408 C103.033802,23.596675 94.4096591,24.7850252 94.4096591,18.86723 C94.4096591,15.5795285 97.0653958,13.2021533 101.086284,13.2021533 Z M214.905066,13.2021533 C216.523273,13.2021533 218.470791,13.5942211 219.811312,14.2390074 L219.811312,14.2390074 L219.811312,18.2980231 C218.559529,17.5267089 216.82694,16.9453553 215.334923,16.9453553 C213.463322,16.9453553 212.198718,17.6279312 212.198718,18.5639004 C212.198718,21.0421606 221,19.7775562 221,25.7716056 C221,29.0846127 218.318958,31.5122617 214.272764,31.5122617 C211.440225,31.5122617 209.695152,30.8549913 208.405242,30.2351732 L208.405242,30.2351732 L208.405242,26.024324 C209.808858,26.9349877 211.452709,27.6681748 213.640124,27.6681748 C214.980645,27.6681748 216.852246,27.2639602 216.852246,26.1002408 C216.852246,23.596675 208.227766,24.7850252 208.227766,18.86723 C208.227766,15.5795285 210.88384,13.2021533 214.905066,13.2021533 Z M49.2162477,13.5058203 L49.2162477,17.0968514 L41.4774627,17.0968514 L41.4774627,20.3592473 L48.0275601,20.3592473 L48.0275601,24.0518381 L41.4774627,24.0518381 L41.4774627,27.5669524 L49.5705259,27.5669524 L49.5705259,31.2089321 L37.5321534,31.2089321 L37.5321534,13.5058203 L49.2162477,13.5058203 Z M125.845268,13.5058203 C130.953959,13.5058203 135.101713,16.9453553 135.101713,22.3826818 C135.101713,27.895925 130.953959,31.2089321 125.845268,31.2089321 L125.845268,31.2089321 L119.876861,31.2089321 L119.876861,13.5058203 Z M22.1048571,13.5058203 L22.1048571,20.3342791 L28.7308713,20.3342791 L28.7308713,13.5058203 L32.7267917,13.5058203 L32.7267917,31.2089321 L28.7308713,31.2089321 L28.7308713,24.1277549 L22.1048571,24.1277549 L22.1048571,31.2089321 L18.1089367,31.2089321 L18.1089367,13.5058203 L22.1048571,13.5058203 Z M14.5050841,13.5058203 L14.5050841,17.2486849 L9.75067098,17.2486849 L9.75067098,31.2089321 L5.75475055,31.2089321 L5.75475055,17.2486849 L1,17.2486849 L1,13.5058203 L14.5050841,13.5058203 Z M204.624588,13.5058203 L204.624588,17.0968514 L196.885803,17.0968514 L196.885803,20.3592473 L203.435563,20.3592473 L203.435563,24.0518381 L196.885803,24.0518381 L196.885803,27.5669524 L204.978529,27.5669524 L204.978529,31.2089321 L192.940494,31.2089321 L192.940494,13.5058203 L204.624588,13.5058203 Z M159.215573,13.5058203 L166.701639,24.6588347 L166.701639,13.5058203 L170.545726,13.5058203 L170.545726,31.2089321 L166.701639,31.2089321 L159.190267,20.0053065 L159.190267,31.2089321 L155.34618,31.2089321 L155.34618,13.5058203 L159.215573,13.5058203 Z M68.4238609,13.5058203 C72.2682852,13.5058203 75.0249068,16.0346917 75.0249068,19.3983099 C75.0249068,21.5226293 73.7225128,23.4701471 71.8509118,24.608561 L71.8509118,24.608561 L75.4547644,31.2089321 L70.7253194,31.2089321 L67.8043802,25.4935816 L65.4398264,25.4935816 L65.4398264,31.2089321 L61.4945171,31.2089321 L61.4945171,13.5058203 Z M150.6552,13.5058203 L150.6552,17.0968514 L142.916077,17.0968514 L142.916077,20.3592473 L149.466512,20.3592473 L149.466512,24.0518381 L142.916077,24.0518381 L142.916077,27.5669524 L151.009141,27.5669524 L151.009141,31.2089321 L138.970768,31.2089321 L138.970768,13.5058203 L150.6552,13.5058203 Z M115.071837,13.5058203 L115.071837,31.2089321 L111.050611,31.2089321 L111.050611,13.5058203 L115.071837,13.5058203 Z M90.8061439,13.5058203 L90.8061439,17.0968514 L83.0670215,17.0968514 L83.0670215,20.3592473 L89.6174563,20.3592473 L89.6174563,24.0518381 L83.0670215,24.0518381 L83.0670215,27.5669524 L91.1600847,27.5669524 L91.1600847,31.2089321 L79.1220496,31.2089321 L79.1220496,13.5058203 L90.8061439,13.5058203 Z M183.570004,14.8966152 C179.232965,14.8966152 175.958085,18.1337055 175.958085,22.4332929 C175.958085,26.7197215 179.207997,29.894054 183.595647,29.894054 C184.620017,29.894054 185.758094,29.7422204 186.643115,29.5148076 L186.643115,29.5148076 L186.643115,29.0593071 C185.758094,29.3120255 184.594712,29.463859 183.595647,29.463859 C179.460715,29.463859 176.41291,26.4794871 176.41291,22.4332929 C176.41291,18.3739398 179.473199,15.3264727 183.570004,15.3264727 C184.594712,15.3264727 185.770578,15.5036118 186.643115,15.7944573 L186.643115,15.7944573 L186.643115,15.3392942 C185.745272,15.0737543 184.607196,14.8966152 183.570004,14.8966152 Z M215.208395,14.8335199 C211.996273,14.8335199 209.98566,16.3508428 209.98566,18.7660077 C209.98566,21.3711332 212.325246,21.9524868 214.51266,22.5216938 C216.687928,23.0780792 218.68572,23.6094965 218.68572,25.9612288 C218.68572,28.1486435 216.978774,29.4011012 214.019708,29.4011012 C212.489226,29.4011012 211.199991,29.1480453 210.036609,28.6422711 L210.036609,28.6422711 L210.036609,29.1099183 C211.212475,29.602871 212.52769,29.8306213 214.019708,29.8306213 C217.244314,29.8306213 219.153367,28.3895526 219.153367,25.9612288 C219.153367,23.6747452 217.451789,22.8784923 215.593567,22.348499 L215.207379,22.2422429 C215.013675,22.190613 214.819434,22.1409291 214.626367,22.0918363 C212.451774,21.5226293 210.453645,21.0421606 210.453645,18.7660077 C210.453645,16.5910771 212.262151,15.2633775 215.208395,15.2633775 C216.20746,15.2633775 217.35802,15.5036118 218.179946,15.8828582 L218.179946,15.8828582 L218.179946,15.415211 C217.472064,15.1115439 216.346472,14.8335199 215.208395,14.8335199 Z M101.389951,14.8335199 C98.1781666,14.8335199 96.1675536,16.3508428 96.1675536,18.7660077 C96.1675536,21.3711332 98.5068018,21.9524868 100.694554,22.5216938 C102.869485,23.0780792 104.867276,23.6094965 104.867276,25.9612288 C104.867276,28.1486435 103.16033,29.4011012 100.201264,29.4011012 C98.6711194,29.4011012 97.3815469,29.1480453 96.2181648,28.6422711 L96.2181648,28.6422711 L96.2181648,29.1099183 C97.3940309,29.602871 98.7092465,29.8306213 100.201264,29.8306213 C103.42587,29.8306213 105.335261,28.3895526 105.335261,25.9612288 C105.335261,23.6747452 103.633437,22.8784923 101.775353,22.348499 L101.389199,22.2422429 C101.195514,22.190613 101.001297,22.1409291 100.80826,22.0918363 C98.6333298,21.5226293 96.6352008,21.0421606 96.6352008,18.7660077 C96.6352008,16.5910771 98.4437066,15.2633775 101.389951,15.2633775 C102.389016,15.2633775 103.539576,15.5036118 104.361502,15.8828582 L104.361502,15.8828582 L104.361502,15.415211 C103.653283,15.1115439 102.528028,14.8335199 101.389951,14.8335199 Z M47.5852185,15.0862384 L39.264405,15.0862384 L39.264405,29.602871 L47.9391592,29.602871 L47.9391592,29.1730135 L39.7199055,29.1730135 L39.7199055,22.4204715 L46.3965308,22.4204715 L46.3965308,21.9906139 L39.7199055,21.9906139 L39.7199055,15.5160959 L47.5852185,15.5160959 L47.5852185,15.0862384 Z M149.023833,15.0862384 L140.703357,15.0862384 L140.703357,29.602871 L149.377774,29.602871 L149.377774,29.1730135 L141.15852,29.1730135 L141.15852,22.4204715 L147.835146,22.4204715 L147.835146,21.9906139 L141.15852,21.9906139 L141.15852,15.5160959 L149.023833,15.5160959 L149.023833,15.0862384 Z M89.1747772,15.0862384 L80.8543012,15.0862384 L80.8543012,29.602871 L89.528718,29.602871 L89.528718,29.1730135 L81.3094643,29.1730135 L81.3094643,22.4204715 L87.9860896,22.4204715 L87.9860896,21.9906139 L81.3094643,21.9906139 L81.3094643,15.5160959 L89.1747772,15.5160959 L89.1747772,15.0862384 Z M202.993221,15.0862384 L194.672745,15.0862384 L194.672745,29.602871 L203.347499,29.602871 L203.347499,29.1730135 L195.127571,29.1730135 L195.127571,22.4204715 L201.804196,22.4204715 L201.804196,21.9906139 L195.127571,21.9906139 L195.127571,15.5160959 L202.993221,15.5160959 L202.993221,15.0862384 Z M68.4238609,15.0990599 L63.2395902,15.0990599 L63.2395902,29.5650814 L63.6947533,29.5650814 L63.6947533,23.9506158 L68.4238609,23.9506158 C68.5756944,23.9506158 68.7147064,23.9506158 68.8540558,23.9377943 L68.8540558,23.9377943 L71.8003006,29.5650814 L72.3313805,29.5650814 L69.3345245,23.8875205 C71.6737727,23.5332423 73.2545282,21.8387804 73.2545282,19.5248378 C73.2545282,16.9197123 71.2563992,15.0990599 68.4238609,15.0990599 L68.4238609,15.0990599 Z M12.8740549,15.1621551 L2.63136665,15.1621551 L2.63136665,15.5795285 L7.52512921,15.5795285 L7.52512921,29.5650814 L7.98029232,29.5650814 L7.98029232,15.5795285 L12.8740549,15.5795285 L12.8740549,15.1621551 Z M113.288637,15.149671 L112.833474,15.149671 L112.833474,29.5650814 L113.288637,29.5650814 L113.288637,15.149671 Z M168.87657,15.149671 L168.421407,15.149671 L168.421407,29.0970968 L167.827232,29.0970968 L158.317731,15.1877981 L157.015337,15.1877981 L157.065948,29.5650814 L157.521111,29.5650814 L157.4705,15.6173182 L158.090318,15.6173182 L167.599482,29.5269543 L168.87657,29.5269543 L168.87657,15.149671 Z M20.3344785,15.149671 L19.8793154,15.149671 L19.8793154,29.5650814 L20.3344785,29.5650814 L20.3344785,22.3192491 L30.4759444,22.3192491 L30.5012499,29.5650814 L30.956413,29.5650814 L30.9061393,15.149671 L30.4506388,15.149671 L30.4759444,21.8893916 L20.3344785,21.8893916 L20.3344785,15.149671 Z M125.845268,15.1877981 L121.609113,15.1877981 L121.609113,29.5522599 L125.845268,29.5522599 C130.38509,29.5522599 133.445041,26.6566262 133.445041,22.3826818 C133.445041,18.1337055 130.321657,15.1877981 125.845268,15.1877981 L125.845268,15.1877981 Z M125.845268,15.6173182 C130.056117,15.6173182 132.964572,18.3739398 132.964572,22.3826818 C132.964572,26.4292134 130.11955,29.1224023 125.845268,29.1224023 L125.845268,29.1224023 L122.064276,29.1224023 L122.064276,15.6173182 Z M125.845268,17.3370857 L123.872782,17.3370857 L123.872782,27.5041946 L125.845268,27.5041946 C128.753723,27.5041946 131.055182,25.7840897 131.055182,22.3826818 C131.055182,19.0315476 128.753723,17.3370857 125.845268,17.3370857 L125.845268,17.3370857 Z M68.4238609,15.5289174 C71.0161649,15.5289174 72.7865436,17.160284 72.7865436,19.5248378 C72.7865436,21.8893916 71.0161649,23.5207582 68.4238609,23.5207582 L68.4238609,23.5207582 L63.6947533,23.5207582 L63.6947533,15.5289174 Z M68.3735871,17.122157 L65.4398264,17.122157 L65.4398264,22.1802371 L68.3735871,22.1802371 C69.9668267,22.1802371 71.0289864,21.0168551 71.0289864,19.6513657 C71.0289864,18.285539 69.9668267,17.122157 68.3735871,17.122157 L68.3735871,17.122157 Z" transform="translate(-1 -13)"/>
</svg>
