<svg xmlns="http://www.w3.org/2000/svg" width="220" height="69" viewBox="0 0 220 69">
  <path fill="#FFF" fill-rule="evenodd" d="M89.6995642,57.9066226 C91.1359844,57.9066226 92.6169183,58.4664669 92.6169183,59.4663113 L92.6169183,59.4663113 L92.6169183,60.4824202 L91.9517821,60.4824202 L91.9517821,59.678607 C91.9517821,58.936428 90.7276576,58.5281012 89.6995642,58.5281012 C88.3547393,58.5281012 87.3112374,59.2240545 87.3112374,60.5132374 C87.3112374,61.9376732 88.5208093,62.3605525 89.8810428,62.8912918 L89.8810428,62.8912918 L90.2042139,63.0180877 C91.5989226,63.5699454 92.8891362,64.1820645 92.8891362,65.9832763 C92.8891362,67.7098911 91.5434553,68.8775175 89.6088249,68.8775175 C88.2032218,68.8775175 86.4192529,68.2406304 86.4192529,66.8624202 L86.4192529,66.8624202 L86.4192529,65.9379066 L87.0843891,65.9379066 L87.0843891,66.7100467 C87.0843891,67.680786 88.2939611,68.2560389 89.6088249,68.2560389 C91.1205759,68.2560389 92.2085914,67.4684903 92.2085914,66.0740156 C92.2085914,64.5288794 90.9091362,63.997284 89.472716,63.4528482 C88.0970739,62.9375175 86.6315486,62.4221868 86.6315486,60.5885681 C86.6315486,58.8602412 88.0063346,57.9066226 89.6995642,57.9066226 Z M12.0387082,58.0881012 L12.0387082,58.6941712 L10.6022879,58.6941712 L10.6022879,64.8010973 C10.6022879,65.6502802 10.768358,66.3916031 11.1167626,66.937751 C11.6603424,67.7869339 12.6584747,68.2560389 13.8980078,68.2560389 C15.1520934,68.2560389 16.1947393,67.7561167 16.709214,66.8778288 C17.0268016,66.3316809 17.2082802,65.6040545 17.2082802,64.7711362 L17.2082802,64.7711362 L17.2082802,58.6941712 L15.7718599,58.6941712 L15.7718599,58.0881012 L19.293572,58.0881012 L19.293572,58.6941712 L17.8580078,58.6941712 L17.8580078,64.8319144 C17.8580078,65.7855331 17.6465681,66.6338599 17.2382412,67.2716031 C16.5731051,68.3022646 15.3789416,68.8775175 13.9125603,68.8775175 C12.4316265,68.8775175 11.1920934,68.286856 10.5269572,67.23993 C10.1186304,66.5893463 9.95256031,65.7855331 9.95256031,64.8319144 L9.95256031,64.8319144 L9.95256031,58.6941712 L8.51699611,58.6941712 L8.51699611,58.0881012 L12.0387082,58.0881012 Z M4.14866926,57.9066226 C5.58423346,57.9066226 7.06602335,58.4664669 7.06602335,59.4663113 L7.06602335,59.4663113 L7.06602335,60.4824202 L6.40088716,60.4824202 L6.40088716,59.678607 C6.40088716,58.936428 5.17590661,58.5281012 4.14866926,58.5281012 C2.80298833,58.5281012 1.76034241,59.2240545 1.76034241,60.5132374 C1.76034241,61.9376732 2.96905837,62.3605525 4.33014786,62.8912918 C5.8410428,63.4828093 7.33738521,64.0435097 7.33738521,65.9832763 C7.33738521,67.7098911 5.99256031,68.8775175 4.05792996,68.8775175 C2.65232685,68.8775175 0.868357977,68.2406304 0.868357977,66.8624202 L0.868357977,66.8624202 L0.868357977,65.9379066 L1.53349416,65.9379066 L1.53349416,66.7100467 C1.53349416,67.680786 2.74306615,68.2560389 4.05792996,68.2560389 C5.5688249,68.2560389 6.6576965,67.4684903 6.6576965,66.0740156 C6.6576965,64.5288794 5.35738521,63.997284 3.92182101,63.4528482 C2.54617899,62.9375175 1.07979767,62.4221868 1.07979767,60.5885681 C1.07979767,58.8602412 2.45543969,57.9066226 4.14866926,57.9066226 Z M24.795284,58.0881012 C25.5057899,58.0881012 26.0348171,58.1334708 26.609214,58.330358 C27.5919377,58.7095798 28.2416654,59.5424981 28.2416654,60.9070117 C28.2416654,62.5437432 27.2743502,63.7558833 25.7172296,63.9373619 L25.7172296,63.9373619 L25.7172296,63.967323 C25.7172296,63.967323 25.8687471,64.0888794 26.0202646,64.3465447 L26.0202646,64.3465447 L28.0148171,67.7407082 C28.1962957,68.0445992 28.3777743,68.0899689 28.7861012,68.0899689 L28.7861012,68.0899689 L29.0728716,68.0899689 L29.0728716,68.6960389 L28.7861012,68.6960389 C27.8641556,68.6960389 27.7434553,68.5744825 27.3351284,67.8930817 L27.3351284,67.8930817 L25.4458677,64.6949494 C25.1282802,64.1496576 24.9168405,63.997284 24.1909261,63.997284 L24.1909261,63.997284 L22.4223658,63.997284 L22.4223658,68.0899689 L23.858786,68.0899689 L23.858786,68.6960389 L20.3362179,68.6960389 L20.3362179,68.0899689 L21.7726381,68.0899689 L21.7726381,58.6941712 L20.3362179,58.6941712 L20.3362179,58.0881012 Z M81.3558288,58.0881012 L81.3558288,58.6941712 L79.9202646,58.6941712 L79.9202646,68.0899689 L84.6361401,68.0899689 L84.6361401,66.2709027 L85.2713152,66.2709027 L85.2713152,68.6960389 L77.8341167,68.6960389 L77.8341167,68.0899689 L79.270537,68.0899689 L79.270537,58.6941712 L77.8341167,58.6941712 L77.8341167,58.0881012 L81.3558288,58.0881012 Z M72.9222101,58.0881012 L72.9222101,58.6941712 L71.4857899,58.6941712 L71.4857899,68.0899689 L76.2016654,68.0899689 L76.2016654,66.2709027 L76.8368405,66.2709027 L76.8368405,68.6960389 L69.4004981,68.6960389 L69.4004981,68.0899689 L70.8360623,68.0899689 L70.8360623,58.6941712 L69.4004981,58.6941712 L69.4004981,58.0881012 L72.9222101,58.0881012 Z M68.1001868,58.0881012 L68.1001868,58.6941712 L66.6646226,58.6941712 L66.6646226,68.0899689 L68.1001868,68.0899689 L68.1001868,68.6960389 L64.5784747,68.6960389 L64.5784747,68.0899689 L66.0148949,68.0899689 L66.0148949,58.6941712 L64.5784747,58.6941712 L64.5784747,58.0881012 L68.1001868,58.0881012 Z M55.9180078,58.0881012 L55.9180078,58.6941712 L54.4815875,58.6941712 L54.4815875,63.0727704 L61.1928716,63.0727704 L61.1928716,58.6941712 L59.7573074,58.6941712 L59.7573074,58.0881012 L63.2790195,58.0881012 L63.2790195,58.6941712 L61.8425992,58.6941712 L61.8425992,68.0899689 L63.2790195,68.0899689 L63.2790195,68.6960389 L59.7573074,68.6960389 L59.7573074,68.0899689 L61.1928716,68.0899689 L61.1928716,63.6788405 L54.4815875,63.6788405 L54.4815875,68.0899689 L55.9180078,68.0899689 L55.9180078,68.6960389 L52.3954397,68.6960389 L52.3954397,68.0899689 L53.8318599,68.0899689 L53.8318599,58.6941712 L52.3954397,58.6941712 L52.3954397,58.0881012 L55.9180078,58.0881012 Z M42.0571518,58.0881012 L42.0571518,58.6941712 L40.8022101,58.6941712 L43.4019767,63.0436654 C43.492716,63.1951829 43.5988638,63.4220311 43.5988638,63.4220311 L43.5988638,63.4220311 L43.6288249,63.4220311 C43.6288249,63.4220311 43.7349728,63.2097354 43.8402646,63.0436654 L43.8402646,63.0436654 L46.4554397,58.6941712 L45.2013541,58.6941712 L45.2013541,58.0881012 L48.2693696,58.0881012 L48.2693696,58.6941712 L47.1959066,58.6941712 L43.9464125,64.0888794 L43.9464125,68.0899689 L45.3828327,68.0899689 L45.3828327,68.6960389 L41.8602646,68.6960389 L41.8602646,68.0899689 L43.2966848,68.0899689 L43.2966848,64.0888794 L40.0471907,58.6941712 L38.9737276,58.6941712 L38.9737276,58.0881012 L42.0571518,58.0881012 Z M34.6054008,58.0881012 C35.3159066,58.0881012 35.8449339,58.1334708 36.4193307,58.330358 C37.4011984,58.7095798 38.0517821,59.5424981 38.0517821,60.9070117 C38.0517821,62.5437432 37.0844669,63.7558833 35.5273463,63.9373619 L35.5273463,63.9373619 L35.5273463,63.967323 C35.5273463,63.967323 35.6780078,64.0888794 35.8295253,64.3465447 L35.8295253,64.3465447 L37.8249339,67.7407082 C38.0064125,68.0445992 38.1878911,68.0899689 38.5953619,68.0899689 L38.5953619,68.0899689 L38.8829883,68.0899689 L38.8829883,68.6960389 L38.5953619,68.6960389 C37.6734163,68.6960389 37.552716,68.5744825 37.1443891,67.8930817 L37.1443891,67.8930817 L35.2551284,64.6949494 C34.9375409,64.1496576 34.7261012,63.997284 34.0001868,63.997284 L34.0001868,63.997284 L32.2324825,63.997284 L32.2324825,68.0899689 L33.6680467,68.0899689 L33.6680467,68.6960389 L30.1463346,68.6960389 L30.1463346,68.0899689 L31.5818988,68.0899689 L31.5818988,58.6941712 L30.1463346,58.6941712 L30.1463346,58.0881012 Z M24.765323,58.6941712 L22.4223658,58.6941712 L22.4223658,63.391214 L25.2190195,63.391214 C26.609214,63.391214 27.5619767,62.4067782 27.5619767,60.9361167 C27.5619767,59.8600856 27.0629105,59.2095019 26.2616654,58.9064669 C25.8533385,58.7540934 25.3243113,58.6941712 24.765323,58.6941712 L24.765323,58.6941712 Z M34.5745837,58.6941712 L32.2324825,58.6941712 L32.2324825,63.391214 L35.0282802,63.391214 C36.4193307,63.391214 37.3712374,62.4067782 37.3712374,60.9361167 C37.3712374,59.8600856 36.8721712,59.2095019 36.0717821,58.9064669 C35.6634553,58.7540934 35.134428,58.6941712 34.5745837,58.6941712 L34.5745837,58.6941712 Z M131.595268,29.2831673 C137.167175,29.2831673 139.806319,32.8528171 140.141883,37.5156187 L140.141883,37.5156187 L134.360249,37.5156187 C134.360249,36.0869027 133.480249,34.911572 131.762195,34.911572 C130.42165,34.911572 129.123051,35.710249 129.123051,37.3469805 C129.123051,39.2370973 131.427486,39.5743735 133.56414,40.2044125 C138.047175,41.5475253 140.141883,44.068537 140.141883,48.0165525 C140.141883,52.4679144 136.371066,56.1642568 131.637214,56.1642568 C126.148342,56.1642568 123.047798,52.4679144 123.047798,47.9318054 L123.047798,47.9318054 L129.03916,47.9318054 C129.03916,49.4024669 130.212778,50.5777977 131.637214,50.5777977 C133.18663,50.5777977 134.150521,49.6969416 134.150521,48.3940623 C134.150521,46.9307461 132.669247,46.2734852 131.047338,45.7199832 L130.639707,45.5833629 C130.298866,45.4706367 129.95677,45.3598737 129.625541,45.2447237 C125.394179,43.7321167 123.047798,41.7572529 123.047798,37.4325837 C123.047798,32.9795097 126.86056,29.2831673 131.595268,29.2831673 Z M80.6494319,29.2831673 C88.5677198,29.2831673 94.181572,35.2051907 94.181572,42.7237121 C94.181572,50.2422335 88.5677198,56.1642568 80.6494319,56.1642568 C72.6891984,56.1642568 67.1172918,50.2422335 67.1172918,42.7237121 C67.1172918,35.2051907 72.6891984,29.2831673 80.6494319,29.2831673 Z M51.2379144,30.1237899 L56.3073307,42.2614553 L61.3767471,30.1237899 L67.7875642,30.1237899 L56.6848405,56.1642568 L55.930677,56.1642568 L44.8279533,30.1237899 L51.2379144,30.1237899 Z M218.864218,30.1237899 L218.864218,35.5835564 L208.390677,35.5835564 L208.390677,40.1196654 L218.068109,40.1196654 L218.068109,45.4963969 L208.390677,45.4963969 L208.390677,50.0325058 L219.325619,50.0325058 L219.325619,55.3244903 L202.231533,55.3244903 L202.231533,30.1237899 L218.864218,30.1237899 Z M190.291611,30.1237899 C195.695735,30.1237899 199.214879,33.399821 199.214879,38.1465136 C199.214879,42.55593 196.994335,45.0341401 193.266319,45.9586537 L193.266319,45.9586537 L200.052934,55.3244903 L192.344374,55.3244903 L185.934412,45.9167082 L185.934412,55.3244903 L179.775268,55.3244903 L179.775268,30.1237899 Z M175.753634,30.1237899 L175.753634,55.3244903 L169.59449,55.3244903 L169.59449,30.1237899 L175.753634,30.1237899 Z M149.610444,30.1237899 L149.610444,40.0366304 L159.455658,40.0366304 L159.455658,30.1237899 L165.572856,30.1237899 L165.572856,55.3244903 L159.455658,55.3244903 L159.455658,45.3697043 L149.610444,45.3697043 L149.610444,55.3244903 L143.4513,55.3244903 L143.4513,30.1237899 L149.610444,30.1237899 Z M104.111533,30.1237899 L113.872856,45.0760856 L113.872856,30.1237899 L119.990054,30.1237899 L119.990054,55.3244903 L113.580093,55.3244903 L103.775969,40.329393 L103.775969,55.3244903 L97.6176809,55.3244903 L97.6176809,30.1237899 L104.111533,30.1237899 Z M42.9849183,30.1237899 L42.9849183,35.5835564 L32.5105214,35.5835564 L32.5105214,40.1196654 L42.1888093,40.1196654 L42.1888093,45.4963969 L32.5105214,45.4963969 L32.5105214,50.0325058 L43.445463,50.0325058 L43.445463,55.3244903 L26.3522335,55.3244903 L26.3522335,30.1237899 L42.9849183,30.1237899 Z M10.6834397,30.1237899 C18.0992374,30.1237899 23.8389261,35.5835564 23.8389261,42.6817665 C23.8389261,49.4024669 18.7275642,55.3244903 10.6834397,55.3244903 L10.6834397,55.3244903 L1.92709728,55.3244903 L1.92709728,30.1237899 Z M80.6494319,35.1212996 C76.1663969,35.1212996 73.3594708,38.4812218 73.3594708,42.7237121 C73.3594708,46.9662023 76.1663969,50.3261245 80.6494319,50.3261245 C85.0905214,50.3261245 87.939393,46.9662023 87.939393,42.7237121 C87.939393,38.4812218 85.0905214,35.1212996 80.6494319,35.1212996 Z M10.5576031,35.710249 L8.08624125,35.710249 L8.08624125,49.6969416 L10.5576031,49.6969416 C14.4962023,49.6969416 17.512856,46.9242568 17.512856,42.6817665 C17.512856,38.7756965 14.872856,35.710249 10.5576031,35.710249 L10.5576031,35.710249 Z M190.71021,35.3729728 L185.934412,35.3729728 L185.934412,41.043323 L190.877992,41.043323 C192.260482,41.043323 193.182428,39.615463 193.182428,38.1465136 C193.182428,36.6758521 192.0927,35.3729728 190.71021,35.3729728 L190.71021,35.3729728 Z M22.2877977,0.759097276 C27.357214,0.759097276 30.4158132,4.24485603 30.4158132,7.85730739 C30.4158132,9.49575097 29.4947237,11.5955953 28.0283424,12.8556732 C30.4577588,14.6199533 31.4635953,16.8875798 31.4635953,19.2399533 C31.4635953,23.4824436 27.8186148,27.6401868 22.0789261,27.6401868 C16.9256187,27.6401868 12.8192374,23.8180078 12.8192374,18.9882802 L12.8192374,18.9882802 L12.8192374,18.3162957 L18.7686537,18.3162957 L18.7686537,18.9882802 C18.7686537,20.8364514 20.3189261,22.0965292 22.0789261,22.0965292 C24.0058521,22.0965292 25.4722335,20.9622879 25.4722335,19.1141167 C25.4722335,17.1820545 23.9219611,16.2575409 22.0789261,16.2575409 L22.0789261,16.2575409 L20.6544903,16.2575409 L20.6544903,10.5452451 L21.995035,10.5452451 C23.4614163,10.5452451 24.2155798,9.24322179 24.2155798,8.1928716 C24.2155798,7.18532296 23.3775253,6.38750195 22.2877977,6.38750195 C21.2408716,6.38750195 20.5286537,7.18532296 20.5286537,8.1928716 L20.5286537,8.1928716 L20.5286537,8.78096498 L14.3695097,8.78096498 L14.3695097,8.1928716 C14.3695097,4.20291051 18.0144903,0.759097276 22.2877977,0.759097276 Z M42.9849183,1.59886381 L42.9849183,26.8004202 L36.7838288,26.8004202 L36.7838288,8.90765759 L34.6891206,10.9655564 L31.9660856,7.85730739 L37.8316109,1.59886381 L42.9849183,1.59886381 Z M11.0190039,1.59886381 L11.0190039,26.8004202 L4.8179144,26.8004202 L4.8179144,8.90765759 L2.72320623,10.9655564 L0.000171206226,7.85730739 L5.8656965,1.59886381 L11.0190039,1.59886381 Z M22.2877977,1.93528405 C19.0622724,1.93528405 16.2553463,4.49738521 15.9197821,7.60563424 L15.9197821,7.60563424 L19.1042179,7.60563424 C19.3969805,6.21886381 20.5286537,5.21131518 22.2877977,5.21131518 C24.4663969,5.21131518 25.7239066,6.6391751 25.7239066,8.3195642 C25.7239066,10.293572 24.5502879,11.6375409 22.2047626,11.7214319 L22.2047626,11.7214319 L22.2047626,15.0813541 C24.8019611,15.1232996 27.0225058,16.3833774 27.0225058,19.1141167 C27.0225058,21.6762179 24.8858521,23.2718599 22.0789261,23.2718599 C19.6486537,23.2718599 17.5958911,21.8020545 17.3442179,19.4916265 L17.3442179,19.4916265 L14.2856187,19.4916265 C14.5792374,23.4404981 17.9725447,26.464 22.0789261,26.464 C26.8547237,26.464 29.913323,22.8952062 29.913323,19.2399533 C29.913323,17.3078911 29.2430506,14.7038444 26.2683424,13.1073463 L26.2683424,13.1073463 L26.2683424,12.6878911 C28.7405603,10.8816654 28.8655409,9.15933074 28.8655409,7.85730739 C28.8655409,4.83294942 26.394179,1.93528405 22.2877977,1.93528405 Z M24.0897432,25.8339611 C23.5872529,25.9606537 23.1677977,26.0445447 22.4136342,26.0445447 L22.4136342,26.0445447 L21.911144,26.0445447 L21.911144,25.8339611 Z M26.0586148,24.9941946 L25.6819611,25.2039222 L21.911144,25.2039222 L21.911144,24.9941946 L26.0586148,24.9941946 Z M27.274179,24.154428 L27.0225058,24.3641556 L21.911144,24.3641556 L21.911144,24.154428 L27.274179,24.154428 Z M28.0694319,23.3138054 L27.9025058,23.5243891 L23.1258521,23.5243891 L24.3414163,23.3138054 L28.0694319,23.3138054 Z M28.6147237,22.4740389 L28.4888872,22.6837665 L25.59807,22.6837665 L25.8908327,22.4740389 L28.6147237,22.4740389 Z M29.033323,21.6342724 L28.9494319,21.844 L26.4361245,21.844 L26.6030506,21.6342724 L29.033323,21.6342724 Z M29.3269416,20.7936498 L29.2430506,21.0042335 L26.9805603,21.0042335 L27.0644514,20.7936498 L29.3269416,20.7936498 Z M29.4947237,19.9538833 L29.4527782,20.1636109 L27.2322335,20.1636109 L27.3161245,19.9538833 L29.4947237,19.9538833 Z M29.5358132,19.1149728 L29.5358132,19.3238444 L27.3991595,19.3238444 L27.3991595,19.1149728 L29.5358132,19.1149728 Z M29.4527782,18.2734942 L29.4947237,18.4840778 L27.357214,18.4840778 L27.3161245,18.2734942 L29.4527782,18.2734942 Z M29.2849961,17.4337276 L29.3688872,17.6434553 L27.1483424,17.6434553 L27.1063969,17.4337276 L29.2849961,17.4337276 Z M28.9494319,16.5939611 L29.033323,16.8036887 L26.7708327,16.8036887 L26.6030506,16.5939611 L28.9494319,16.5939611 Z M28.5308327,15.7533385 L28.6566693,15.9639222 L26.1005603,15.9639222 L25.8497432,15.7533385 L28.5308327,15.7533385 Z M27.8605603,14.913572 L28.0694319,15.1232996 L24.634179,15.1232996 L23.9639066,14.913572 L27.8605603,14.913572 Z M26.9805603,14.115751 L27.1902879,14.2835331 L22.5814163,14.2835331 L22.5814163,14.115751 L26.9805603,14.115751 Z M25.8908327,13.2759844 L26.1844514,13.4857121 L22.5814163,13.4857121 L22.5814163,13.2759844 L25.8908327,13.2759844 Z M26.0586148,12.4353619 L25.8497432,12.6459455 L22.5814163,12.6459455 L22.5814163,12.4353619 L26.0586148,12.4353619 Z M26.9386148,11.5955953 L26.7288872,11.805323 L23.8800156,11.805323 L24.4663969,11.5955953 L26.9386148,11.5955953 Z M27.6508327,10.7558288 L27.4830506,10.9655564 L25.1786148,10.9655564 L25.3883424,10.7558288 L27.6508327,10.7558288 Z M28.1113774,9.91520623 L27.9863969,10.1257899 L25.7239066,10.1257899 L25.8077977,9.91520623 L28.1113774,9.91520623 Z M28.4049961,9.07543969 L28.3211051,9.28516732 L25.9747237,9.28516732 L26.0586148,9.07543969 L28.4049961,9.07543969 Z M28.4888872,8.23567315 L28.4469416,8.44540078 L26.1005603,8.44540078 L26.1005603,8.23567315 L28.4888872,8.23567315 Z M28.4469416,7.39505058 L28.4888872,7.60563424 L26.0166693,7.60563424 L25.9327782,7.39505058 L28.4469416,7.39505058 Z M28.2791595,6.55528405 L28.3630506,6.76501167 L25.7239066,6.76501167 L25.59807,6.55528405 L28.2791595,6.55528405 Z M27.9863969,5.71551751 L28.0694319,5.92524514 L25.1786148,5.92524514 L24.9277977,5.71551751 L27.9863969,5.71551751 Z M27.4830506,4.87489494 L27.6508327,5.0854786 L23.9219611,5.0854786 L23.2516887,4.87489494 L27.4830506,4.87489494 Z M26.8127782,4.0351284 L27.0225058,4.24485603 L21.995035,4.24485603 L21.995035,4.0351284 L26.8127782,4.0351284 Z M25.6400156,3.19536187 L25.9327782,3.40508949 L21.995035,3.40508949 L21.995035,3.19536187 L25.6400156,3.19536187 Z M22.2877977,2.3547393 C22.875035,2.3547393 23.5872529,2.43863035 24.0897432,2.56532296 L24.0897432,2.56532296 L21.995035,2.56532296 L21.995035,2.3547393 Z"/>
</svg>
