<svg xmlns="http://www.w3.org/2000/svg" width="106" height="120" viewBox="0 0 106 120">
  <path fill="#FFF" d="M48.8027127,1.02122831 C51.1528725,-0.341001433 54.8459319,-0.341001433 57.1959048,1.02112006 L57.1959048,1.02112006 L101.805839,26.8654958 C104.154548,28.2268847 106.0003,31.4309007 106.0003,34.1462877 L106.0003,34.1462877 L106.0003,85.8545938 C106.0003,88.571189 104.155058,91.7737014 101.805626,93.1355089 L101.805626,93.1355089 L57.1960916,118.977856 C54.8459319,120.340086 51.1528725,120.340086 48.8029104,118.97797 L48.8029104,118.97797 L4.19508704,93.1355746 C1.84471019,91.7744151 0.0003,88.5722738 0.0003,85.8545938 L0.0003,85.8545938 L0.0003,34.1462877 C0.0003,31.4298157 1.84521919,28.2261716 4.1949328,26.8653962 L4.1949328,26.8653962 Z M56.2044508,2.73526886 C54.4676732,1.72857555 51.5311312,1.72857555 49.7941817,2.73536845 L49.7941817,2.73536845 L5.18607572,28.5797253 C3.44772276,29.5864471 1.97912469,32.1366215 1.97912469,34.1462877 L1.97912469,34.1462877 L1.97912469,85.8545938 C1.97912469,87.865405 3.44715913,90.414108 5.18620414,91.4212306 L5.18620414,91.4212306 L49.7943536,117.263815 C51.5311312,118.270509 54.4676732,118.270509 56.2046634,117.263692 L56.2046634,117.263692 L100.814198,91.4213451 C102.552543,90.4137433 104.021475,87.8643365 104.021475,85.8545938 L104.021475,85.8545938 L104.021475,34.1462877 C104.021475,32.1376901 102.551979,29.5868112 100.814385,28.5796446 L100.814385,28.5796446 Z M49.5712949,85.7003801 C49.7041742,85.7003801 49.7813879,85.7956403 49.7526572,85.9592002 L49.7526572,85.9592002 L49.3989109,88.123224 C49.8963106,86.717687 50.6451036,85.7273406 51.5824416,85.7273406 C52.0421323,85.7273406 52.5987889,86.1137734 52.5987889,87.0250359 C52.5987889,88.4000178 51.5357543,90.6988437 49.8675799,90.6988437 C49.6269606,90.6988437 49.3504279,90.6413281 49.1205826,90.5173102 L49.1205826,90.5173102 L48.9589726,91.5436038 C48.9194679,91.8707237 49.0900562,91.9587944 49.5407686,91.9102657 L49.5407686,91.9102657 L49.4940812,92.1888568 C48.6806442,92.3236589 48.1994056,92.6885234 47.9138946,92.6885234 C47.8079502,92.6885234 47.7397149,92.6310078 47.7594672,92.5267608 C47.7989719,92.3236589 47.9982909,92.3919587 48.0952569,91.6802033 L48.0952569,91.6802033 L48.7758146,86.7662158 C48.8225019,86.4301091 48.5854739,86.3815803 48.2873932,86.4211223 L48.2873932,86.4211223 L48.3161239,86.1587074 C49.0541429,86.0275 49.3899326,85.7003801 49.5712949,85.7003801 Z M54.2849199,85.7003801 C54.4195949,85.7003801 54.4968086,85.7956403 54.4680779,85.9592002 L54.4680779,85.9592002 L54.1125359,88.123224 C54.6099356,86.717687 55.3587286,85.7273406 56.2960666,85.7273406 C56.7557573,85.7273406 57.3142096,86.1137734 57.3142096,87.0250359 C57.3142096,88.4000178 56.2493793,90.6988437 54.5812049,90.6988437 C54.3423813,90.6988437 54.0640529,90.6413281 53.8360033,90.5173102 L53.8360033,90.5173102 L53.6725976,91.5436038 C53.6330929,91.8707237 53.8054769,91.9587944 54.2561893,91.9102657 L54.2561893,91.9102657 L54.2095019,92.1888568 C53.3942693,92.3236589 52.9148263,92.6885234 52.6275196,92.6885234 C52.5215753,92.6885234 52.4551356,92.6310078 52.4730923,92.5267608 C52.5125969,92.3236589 52.7137116,92.3919587 52.8088819,91.6802033 L52.8088819,91.6802033 L53.4894396,86.7662158 C53.5361269,86.4301091 53.2990989,86.3815803 53.0010183,86.4211223 L53.0010183,86.4211223 L53.0279533,86.1587074 C53.7677679,86.0275 54.1035576,85.7003801 54.2849199,85.7003801 Z M71.7316174,84.497945 C72.4498841,84.497945 72.6420205,84.7190205 72.8323611,84.7190205 C72.9490795,84.7190205 73.0352715,84.6794785 73.0819588,84.5554606 L73.0819588,84.5554606 L73.3315565,84.5554606 L73.2184295,85.7956403 L73.0729805,85.7956403 C72.9688318,85.7956403 72.9490795,85.7381247 72.9095748,85.5835516 C72.7766955,85.0928718 72.2972524,84.7963071 71.8088311,84.7963071 C71.0133508,84.7963071 70.6506261,85.3319209 70.6506261,85.8441691 C70.6506261,86.2953069 70.9451154,86.6493872 71.6849301,87.0537937 C72.2505651,87.3611426 73.2651168,87.805091 73.2651168,88.8906976 C73.2651168,90.1614325 72.1051161,90.7581567 71.2916791,90.7581567 C70.4279634,90.7581567 70.0634431,90.3807107 69.8353934,90.3807107 C69.6719878,90.3807107 69.5570651,90.4975392 69.5085821,90.6215572 L69.5085821,90.6215572 L69.2410278,90.6215572 L69.3451764,89.2555621 L69.5678391,89.2555621 C69.6540311,89.2555621 69.6899444,89.314875 69.7222664,89.4496772 C69.8264151,89.9870884 70.3722978,90.4400236 71.0815861,90.4400236 C71.8088311,90.4400236 72.3457354,89.8990176 72.3457354,89.2088307 C72.3457354,88.5456041 71.7495741,88.2184842 71.1767564,87.9111353 C70.5141554,87.5660418 69.8048671,87.1023224 69.8048671,86.1407338 C69.8048671,85.2959737 70.5267251,84.497945 71.7316174,84.497945 Z M45.3263389,84.6525181 L45.3065865,84.9113382 C44.8935832,84.940096 44.6565552,84.9958142 44.4159359,85.2474449 L44.4159359,85.2474449 L42.4335198,87.3251953 C43.5432418,89.6401975 44.3010132,90.4579972 44.7624995,90.4975392 L44.7624995,90.4975392 L44.4626232,90.7581567 C43.6491862,90.7581567 42.9111672,90.0931327 41.7529622,88.0351533 L41.7529622,88.0351533 L41.4459032,88.3622732 L41.2070795,90.0266303 C41.1693705,90.2674768 41.3309805,90.3124109 41.8014452,90.362737 L41.8014452,90.362737 L41.7798972,90.6215572 C41.0616305,90.5945967 40.3056548,90.5945967 39.5873881,90.6215572 L39.5873881,90.6215572 L39.6071405,90.362737 C40.0847878,90.3124109 40.2787198,90.2279349 40.3164288,89.9870884 L40.3164288,89.9870884 L40.9754385,85.2474449 C41.0059648,85.0065984 40.8515375,84.959867 40.3828685,84.9113382 L40.3828685,84.9113382 L40.4008251,84.6525181 C41.1208875,84.6794785 41.8768632,84.6794785 42.5969255,84.6525181 L42.5969255,84.6525181 L42.5753775,84.9113382 C42.0887518,84.959867 41.9055938,85.0461404 41.8768632,85.2869869 L41.8768632,85.2869869 L41.5123428,87.8338488 L43.9759975,85.2564317 C44.2148212,84.9886248 43.8790315,84.940096 43.4570498,84.9113382 L43.4570498,84.9113382 L43.4768022,84.6525181 C44.0891245,84.6794785 44.7122209,84.6794785 45.3263389,84.6525181 L45.3263389,84.6525181 Z M31.4350614,84.5069318 C31.8354951,84.5069318 32.2287461,84.6417339 32.4963004,84.8915672 L32.4963004,84.8915672 L32.2772291,85.1414006 C32.0455881,84.9508802 31.7690554,84.7873203 31.3668261,84.7873203 C30.2265777,84.7873203 29.7381564,86.2863201 29.5370417,87.4779711 C29.6896734,87.2748692 30.2355561,86.7859867 30.9933274,86.7859867 C31.8642257,86.7859867 32.5735141,87.4024819 32.5735141,88.4108019 C32.5735141,89.6312107 31.5499841,90.7383857 30.3217481,90.7383857 C29.0486204,90.7383857 28.5206944,89.7678102 28.5206944,88.4880885 C28.5206944,86.4984088 29.6609427,84.5069318 31.4350614,84.5069318 Z M76.9157072,89.6312107 C77.1653048,89.6312107 77.3466672,89.8432994 77.3466672,90.0931327 C77.3466672,90.4400236 77.0503822,90.7186147 76.7612798,90.7186147 C76.5242518,90.7186147 76.3321155,90.5173102 76.3321155,90.2566927 C76.3321155,89.920586 76.6086482,89.6312107 76.9157072,89.6312107 Z M66.7019551,85.7183537 C67.0754537,85.7183537 67.2496334,85.9394293 67.2496334,86.1892626 C67.2496334,86.4301091 67.0754537,86.6493872 66.8078994,86.6493872 C66.4254224,86.6493872 66.4164441,86.3132806 66.2225121,86.3132806 C65.8885181,86.3132806 65.5239977,87.0843488 65.1217684,88.0459375 L65.1217684,88.0459375 L65.7251124,89.7947707 C65.7933477,89.9870884 65.8687657,90.0841459 66.0124191,90.0841459 C66.2045554,90.0841459 66.4344007,89.8918282 66.5852367,89.7264709 C66.6444937,89.6689553 66.6714287,89.6689553 66.7306857,89.7174841 C66.7881471,89.7678102 66.7989211,89.8145416 66.7217074,89.9098018 C66.2620167,90.4975392 65.8579917,90.6898569 65.4952671,90.6898569 C65.139725,90.6898569 65.0445547,90.4292394 64.9386104,90.1129037 L64.9386104,90.1129037 L64.498672,88.9014818 C64.0479597,89.9313702 63.5703124,90.7078305 62.887959,90.7078305 C62.5252344,90.7078305 62.343872,90.4885524 62.343872,90.2351243 C62.343872,89.9978726 62.5252344,89.776797 62.7838104,89.776797 C63.1662874,89.776797 63.1752657,90.1129037 63.367402,90.1129037 C63.674461,90.1129037 64.0102507,89.4496772 64.3837494,88.5833487 L64.3837494,88.5833487 L63.7786097,86.9207889 C63.7031917,86.6997134 63.6080214,86.6314136 63.453594,86.6314136 C63.329693,86.6314136 63.2345227,86.6997134 63.0423864,86.7859867 C62.984925,86.8165419 62.9561944,86.7949736 62.9166897,86.7482421 C62.8789807,86.6889292 62.8700024,86.6404004 62.9382377,86.6026558 C63.71217,86.1587074 63.9025107,85.7183537 64.1072167,85.7183537 C64.326288,85.7183537 64.3657927,85.8909005 64.5166287,86.3258621 L64.5166287,86.3258621 L65.0068457,87.7188176 C65.4844931,86.6026558 65.9836884,85.7183537 66.7019551,85.7183537 Z M60.6379887,85.7273406 C60.8480817,85.7273406 61.3562553,85.7668825 61.8339027,85.9771739 L61.8339027,85.9771739 L61.174893,89.776797 C61.1443667,89.9691148 61.2108063,90.0535908 61.3562553,90.0535908 C61.5286393,90.0535908 61.7477107,89.8720572 61.8823857,89.7264709 C61.939847,89.6689553 61.9703734,89.6689553 62.026039,89.7174841 C62.0835004,89.7678102 62.0835004,89.8145416 62.0170607,89.9098018 C61.643562,90.4490104 61.115636,90.6898569 60.733159,90.6898569 C60.3309297,90.6898569 60.242942,90.362737 60.2824467,90.1039169 L60.2824467,90.1039169 L60.4656047,89.1045837 C60.1100627,90.0086567 59.7275857,90.6898569 58.815387,90.6898569 C58.1940863,90.6898569 57.6284513,90.3519529 57.6284513,89.2555621 C57.6284513,87.5264999 58.912353,85.7273406 60.6379887,85.7273406 Z M47.0412005,85.7183537 C47.4039252,85.7183537 47.5116652,85.9771739 47.4434299,86.3132806 L47.4434299,86.3132806 L46.8023769,89.776797 C46.7628722,89.9691148 46.8113552,90.0535908 46.9532129,90.0535908 C47.1363709,90.0535908 47.3482595,89.8720572 47.4811389,89.7264709 C47.5403959,89.6689553 47.5673309,89.6689553 47.6265879,89.7174841 C47.6840492,89.7678102 47.6840492,89.8145416 47.6158139,89.9098018 C47.2423152,90.4490104 46.7161849,90.6898569 46.3426862,90.6898569 C45.9296829,90.6898569 45.8542649,90.362737 45.8901782,90.1039169 L45.8901782,90.1039169 L46.5438009,86.6799424 C46.5815099,86.489422 46.5348225,86.3905671 46.3983519,86.3905671 C46.2080112,86.3905671 46.0266489,86.5271666 45.8345125,86.7266738 C45.7483205,86.8165419 45.7195899,86.7949736 45.6621285,86.7482421 C45.6136455,86.6997134 45.6136455,86.6619688 45.6711069,86.5846822 C46.1218192,85.9592002 46.6479495,85.7183537 47.0412005,85.7183537 Z M75.8221461,84.497945 L75.6318055,85.8154113 L76.3590505,85.8154113 C76.4075335,85.8154113 76.4470382,85.8441691 76.4362642,85.8998873 L76.4362642,85.8998873 L76.4075335,86.0544604 C76.3967595,86.1029892 76.3788028,86.1227602 76.3321155,86.1227602 L76.3321155,86.1227602 L75.5833225,86.1227602 L75.0464181,89.776797 C75.0194831,89.9691148 75.0553965,90.0535908 75.2008455,90.0535908 C75.3642511,90.0535908 75.5923008,89.8720572 75.7269758,89.7264709 C75.7844371,89.6689553 75.8149635,89.6689553 75.8706291,89.7174841 C75.9280905,89.7678102 75.9280905,89.8145416 75.8598551,89.9098018 C75.4863565,90.4490104 74.9602261,90.6898569 74.5867275,90.6898569 C74.1755198,90.6898569 74.1001018,90.362737 74.1378108,90.1039169 L74.1378108,90.1039169 L74.7231981,86.1227602 L74.0013401,86.1227602 C73.9546528,86.1227602 73.9169438,86.1029892 73.9277178,86.0454736 L73.9277178,86.0454736 L73.9546528,85.8819137 C73.9636311,85.8333849 73.9833835,85.8154113 74.0318665,85.8154113 L74.0318665,85.8154113 L74.7698855,85.8154113 L74.9602261,84.497945 L75.8221461,84.497945 Z M36.7699871,84.497945 L36.2241044,88.3928283 L36.3964884,88.3928283 C36.6173554,88.3928283 36.7699871,88.3155418 36.8956838,88.123224 L36.8956838,88.123224 L37.0285631,87.9488799 L37.2117211,87.9488799 L36.9333928,88.6516485 C36.8777271,88.7954374 36.7610088,88.8511556 36.6083771,88.8511556 L36.6083771,88.8511556 L36.1558691,88.8511556 L35.9942591,90.0266303 C35.9655284,90.2674768 36.1181601,90.3124109 36.5796464,90.362737 L36.5796464,90.362737 L36.5598941,90.6215572 C35.8506058,90.5945967 35.0946301,90.5945967 34.3655894,90.6215572 L34.3655894,90.6215572 L34.3853418,90.362737 C34.8737631,90.3124109 35.0641038,90.2279349 35.0946301,89.9870884 L35.0946301,89.9870884 L35.2562401,88.8511556 L33.1193967,88.8511556 L33.0727094,88.4108019 L36.4647238,84.497945 L36.7699871,84.497945 Z M55.981825,86.1137734 C55.14684,86.1137734 54.1322883,88.4503439 53.9958176,89.4101352 C53.9096256,89.9763042 53.9958176,90.4400236 54.6009573,90.4400236 C55.884859,90.4400236 56.4109893,87.9398931 56.4109893,86.8902337 C56.4109893,86.3528225 56.2008963,86.1137734 55.981825,86.1137734 Z M30.8406957,87.0843488 C30.1116551,87.0843488 29.4993327,87.7278044 29.459828,88.0243691 C29.422119,88.2957708 29.4023667,88.5545909 29.4023667,88.7864506 C29.4023667,89.8037575 29.7381564,90.4400236 30.3037914,90.4400236 C31.1854637,90.4400236 31.6810677,89.2663462 31.6810677,88.2759998 C31.6810677,87.6433284 31.4224917,87.0843488 30.8406957,87.0843488 Z M51.2681999,86.1137734 C50.4314192,86.1137734 49.4168676,88.4503439 49.2821926,89.4101352 C49.1977962,89.9763042 49.2821926,90.4400236 49.8873322,90.4400236 C51.1712339,90.4400236 51.6991599,87.9398931 51.6991599,86.8902337 C51.6991599,86.3528225 51.4872713,86.1137734 51.2681999,86.1137734 Z M60.436874,85.9861607 C59.0649847,85.9861607 58.5693807,88.1699554 58.5693807,89.1692887 C58.5693807,89.8918282 58.836935,90.2764637 59.1421983,90.2764637 C59.8802173,90.2764637 60.501518,88.4773043 60.706224,87.4384291 L60.706224,87.4384291 L60.9342737,86.2180204 C60.85706,86.0364868 60.6074623,85.9861607 60.436874,85.9861607 Z M35.6872001,85.7578957 L33.3995207,88.3928283 L35.3226798,88.3928283 L35.6872001,85.7578957 Z M47.2315412,83.9389654 C47.5026869,83.9389654 47.7397149,84.1618383 47.7397149,84.438632 C47.7397149,84.7190205 47.5026869,84.940096 47.2315412,84.940096 C46.9639869,84.940096 46.7251632,84.7190205 46.7251632,84.438632 C46.7251632,84.1618383 46.9639869,83.9389654 47.2315412,83.9389654 Z M40.6861566,62.3693638 C45.3082026,62.3693638 48.7091953,65.8939906 48.7091953,70.6030789 C48.7091953,75.3139646 45.3082026,78.8421861 40.6861566,78.8421861 C36.0605192,78.8421861 32.6595265,75.3139646 32.6595265,70.6030789 C32.6595265,65.8939906 36.0605192,62.3693638 40.6861566,62.3693638 Z M70.8820875,62.3693638 C74.1932969,62.3693638 76.0518119,64.8946574 76.0518119,64.8946574 L76.0518119,64.8946574 L74.1699532,66.7603191 C74.1699532,66.7603191 74.1524535,66.7363897 74.1184607,66.6940531 L74.028783,66.5864732 C73.6400323,66.1354965 72.476018,64.9629571 70.8820875,64.9629571 C69.5227679,64.9629571 68.4561418,65.8023251 68.4561418,66.8735529 C68.4561418,68.2629137 69.7041302,68.6942805 71.8804782,69.5138776 C74.3064239,70.4215454 76.3247533,71.5143414 76.3247533,74.4062968 C76.3247533,77.2928601 73.7838849,78.8421861 70.7923042,78.8421861 C67.0383902,78.8421861 65.1917326,75.9295473 65.0030623,75.6146674 L64.9869138,75.5871636 L67.0285868,73.8581014 C67.0285868,73.8581014 68.3879065,76.2467955 70.7923042,76.2467955 C72.1516239,76.2467955 73.5576309,75.7003974 73.5576309,74.4062968 C73.5576309,73.0618701 72.5358966,72.5837718 70.6558335,71.92414 C68.3214668,71.1063403 65.6890195,69.8320106 65.6890195,66.8735529 C65.6890195,64.6214583 67.6858008,62.3693638 70.8820875,62.3693638 Z M53.5395387,62.6425628 L53.5395387,72.4489696 C53.5395387,74.7226325 54.6726044,76.2467955 56.9405314,76.2467955 C59.1833191,76.2467955 60.3415241,74.7226325 60.3415241,72.4489696 L60.3415241,72.4489696 L60.3415241,62.6425628 L63.0619591,62.6425628 L63.0619591,72.7904684 C63.0619591,76.2917295 60.6809051,78.8421861 56.9405314,78.8421861 C53.198362,78.8421861 50.8191037,76.2917295 50.8191037,72.7904684 L50.8191037,72.7904684 L50.8191037,62.6425628 L53.5395387,62.6425628 Z M21.0523371,62.6425628 L21.0523371,69.1256474 L27.8309788,69.1256474 L27.8309788,62.6425628 L30.5514138,62.6425628 L30.5514138,78.5671897 L27.8309788,78.5671897 L27.8309788,71.7192407 L21.0523371,71.7192407 L21.0523371,78.5671897 L18.331902,78.5671897 L18.331902,62.6425628 L21.0523371,62.6425628 Z M88.3844507,62.6425628 L88.3844507,65.2361561 L81.4908863,65.2361561 L81.4908863,69.1022817 L87.8403637,69.1022817 L87.8403637,71.695875 L81.4908863,71.695875 L81.4908863,75.9735964 L88.5191257,75.9735964 L88.5191257,78.5671897 L78.7722469,78.5671897 L78.7722469,62.6425628 L88.3844507,62.6425628 Z M40.6861566,64.9629571 C37.4880742,64.9629571 35.4248532,67.5331847 35.4248532,70.6030789 C35.4248532,73.6765679 37.4880742,76.2467955 40.6861566,76.2467955 C43.8806476,76.2467955 45.9438686,73.6765679 45.9438686,70.6030789 C45.9438686,67.5331847 43.8806476,64.9629571 40.6861566,64.9629571 Z M13.6725061,42.4046267 L13.6725061,48.8895086 L20.4511479,48.8895086 L20.4511479,42.4046267 L23.1715829,42.4046267 L23.1715829,58.331051 L20.4511479,58.331051 L20.4511479,51.4831019 L13.6725061,51.4831019 L13.6725061,58.331051 L10.9520711,58.331051 L10.9520711,42.4046267 L13.6725061,42.4046267 Z M33.6905983,42.4046267 L39.8569177,58.331051 L37.113139,58.331051 L35.6622403,54.5529961 L28.9536296,54.5529961 L27.5027309,58.331051 L24.7589522,58.331051 L30.9252716,42.4046267 L33.6905983,42.4046267 Z M46.5906678,42.4046267 C49.1764278,42.4046267 51.6454695,43.6088592 51.6454695,46.9555472 C51.6454695,48.8895086 50.2179145,49.8205421 49.9916605,49.8906392 C50.2179145,49.9355733 52.4624978,50.7551703 52.4624978,53.6219627 C52.4624978,56.4186579 50.1514748,58.331051 47.1580984,58.331051 L47.1580984,58.331051 L41.4442871,58.331051 L41.4442871,42.4046267 Z M57.6322222,42.4064241 L57.6322222,58.331051 L54.9117872,58.331051 L54.9117872,42.4064241 L57.6322222,42.4064241 Z M71.1895057,42.4046267 L71.1895057,44.99822 L66.813466,44.99822 L66.813466,58.331051 L64.0930309,58.331051 L64.0930309,44.99822 L59.7169912,44.99822 L59.7169912,42.4046267 L71.1895057,42.4046267 Z M79.5106251,42.4046267 L85.6751488,58.331051 L82.9313701,58.331051 L81.4804714,54.5529961 L74.770065,54.5529961 L73.3191664,58.331051 L70.5753877,58.331051 L76.7435027,42.4046267 L79.5106251,42.4046267 Z M96.5353409,42.4046267 L96.5353409,44.99822 L92.1593012,44.99822 L92.1593012,58.331051 L89.4388662,58.331051 L89.4388662,44.99822 L85.0628265,44.99822 L85.0628265,42.4046267 L96.5353409,42.4046267 Z M47.0665194,51.5064676 L44.1647221,51.5064676 L44.1647221,55.7374577 L47.0665194,55.7374577 C48.5623098,55.7374577 49.6953755,55.1227599 49.6953755,53.6219627 C49.6953755,52.1211654 48.5623098,51.5064676 47.0665194,51.5064676 L47.0665194,51.5064676 Z M32.307935,45.8393854 L29.9250853,52.0510683 L34.6871933,52.0510683 L32.307935,45.8393854 Z M78.1261661,45.8393854 L75.745112,52.0510683 L80.5054244,52.0510683 L78.1261661,45.8393854 Z M46.4990888,44.99822 L44.1647221,44.99822 L44.1647221,48.9128743 L46.4990888,48.9128743 C48.0182228,48.9128743 48.8801428,48.3431106 48.8801428,46.9555472 C48.8801428,45.5661864 47.8368605,44.99822 46.4990888,44.99822 L46.4990888,44.99822 Z"/>
</svg>
