<svg xmlns="http://www.w3.org/2000/svg" width="126" height="80" viewBox="0 0 126 80">
  <path fill="#FFF" fill-rule="evenodd" d="M40.1887536,61.3584162 L40.1887536,75.8724904 L51.0575709,75.8724904 L51.0575709,61.3584162 L59.5439523,61.3584162 L59.5433722,97.249 L58.50617,100 L51.0575709,100 L51.0575709,84.5411347 L40.1887536,84.5411347 L40.1887536,100 L31.7023722,100 L31.7023722,61.3584162 L40.1887536,61.3584162 Z M80.3981699,61.3584162 L93.5803722,96.658 L93.5806095,100 L84.765039,100 L83.0000651,94.4112259 L70.3848722,94.4112259 L68.4692524,100 L59.5439523,100 L59.5433722,97.249 L73.0834782,61.3584162 L80.3981699,61.3584162 Z M104.823252,61.3584162 C111.068544,61.3584162 113.469578,62.1934776 115.775761,64.1239759 C117.42345,65.5341882 118.600959,67.4404725 119.315901,69.5445898 L119.322372,69.565 L119.322447,70.0252006 L119.468372,70.025 L119.537093,70.2528803 C119.911243,71.5633458 120.112959,72.935318 120.14398,74.3007315 L120.148209,74.6729033 C120.148209,79.1104457 118.033588,85.6384314 111.308461,86.8398784 L111.308461,86.8398784 L120.964673,100 L110.588709,100 L102.373862,87.5187145 L102.277151,87.5187145 L102.277151,100 L94.828552,100 L93.5803722,96.658 L93.5806095,61.3584162 Z M141.880264,61.3584162 L141.880264,70.0252006 L135.064006,70.0252006 L135.064006,100 L126.183342,100 L126.183342,70.0252006 L119.468372,70.025 L119.430776,69.8970567 L119.430776,69.8970567 L119.322372,69.565 L119.322447,61.3584162 L141.880264,61.3584162 Z M76.8142872,73.3673061 L76.667361,73.3673061 L72.9365521,86.577643 L80.5450961,86.577643 L76.8142872,73.3673061 Z M105.591359,70.0252006 L102.277151,70.0252006 L102.277151,80.7824284 L105.494648,80.7824284 C110.826767,80.7824284 111.453528,77.1278723 111.453528,75.2475892 C111.453528,71.7492584 109.098989,70.0252006 105.591359,70.0252006 L105.591359,70.0252006 Z M76.3493309,28.7188596 C86.8982583,28.7188596 91.9644215,37.0229781 91.9644215,44.12379 C91.9644215,51.2264616 86.8982583,59.5287203 76.3493309,59.5287203 C65.8022634,59.5287203 60.73796,51.2264616 60.73796,44.12379 C60.73796,37.0229781 65.8022634,28.7188596 76.3493309,28.7188596 Z M140.429601,28.9290198 C144.863424,28.9290198 147.976771,32.1186196 147.976771,36.0093735 C147.976771,39.7792388 145.253987,41.7246157 144.009764,42.6191915 L144.009764,42.6191915 L147.390926,46.0431293 L149.492528,41.3359123 L156.297628,41.3359123 L154.080716,46.6624511 C153.537648,47.9866465 152.836493,49.2699257 151.904721,50.4750923 L151.904721,50.4750923 L155.830812,54.5202116 L151.436045,58.8368655 L148.053024,55.3366748 C146.963166,56.2684471 144.086017,58.8368655 139.458772,58.8368655 C134.052261,58.8368655 129.852776,55.1413932 129.852776,50.4750923 C129.852776,46.1974948 133.120489,43.9805834 135.181175,42.5801352 C133.157685,40.5194491 132.458391,38.4197067 132.458391,36.3590206 C132.458391,32.157676 135.997638,28.9290198 140.429601,28.9290198 Z M40.1887536,20 L40.1887536,34.5140742 L51.0575709,34.5140742 L51.0575709,20 L59.5439523,20 L59.5439523,58.6415838 L51.0575709,58.6415838 L51.0575709,43.1827185 L40.1887536,43.1827185 L40.1887536,58.6415838 L31.7023722,58.6415838 L31.7023722,20 L40.1887536,20 Z M102.61006,20 L102.61006,49.9729395 L112.902331,49.9729395 L112.902331,58.6415838 L93.7293955,58.6415838 L93.7293955,20 L102.61006,20 Z M131.755377,20 L131.755377,28.6686443 L124.939119,28.6686443 L124.939119,58.6415838 L116.056594,58.6415838 L116.056594,28.6686443 L109.1957,28.6686443 L109.1957,20 L131.755377,20 Z M139.148182,46.4708891 C138.216409,47.2092396 136.92941,48.2191246 136.92941,49.8129946 C136.92941,51.6430624 138.486084,52.6529474 140.238039,52.6529474 C142.259669,52.6529474 143.154245,51.7583715 143.73637,51.0962738 L143.73637,51.0962738 Z M76.3493309,36.8128179 C72.5906246,36.8128179 69.4066042,39.8945479 69.4066042,44.12379 C69.4066042,48.3548918 72.5906246,51.434762 76.3493309,51.434762 C80.1098971,51.434762 83.2957773,48.3548918 83.2957773,44.12379 C83.2957773,39.8945479 80.1098971,36.8128179 76.3493309,36.8128179 Z M140.468657,34.1402494 C139.613138,34.1402494 138.720422,34.7632908 138.720422,36.04657 C138.720422,37.4079619 139.69125,38.4569032 140.353348,39.1580572 C141.208868,38.3025377 142.14064,37.3689056 142.14064,35.9703172 C142.14064,34.9567126 141.558515,34.1402494 140.468657,34.1402494 Z" transform="translate(-31 -20)"/>
</svg>
