<svg xmlns="http://www.w3.org/2000/svg" width="220" height="46" viewBox="0 0 220 46">
  <path fill="#FFF" fill-rule="evenodd" d="M20.6202897,0.989795931 L20.6202897,45.0102041 L13.0740244,45.0102041 L13.0740244,11.0520103 L5.33949804,17.21453 L1,11.6806021 L14.3950164,0.989795931 L20.6202897,0.989795931 Z M124.960353,18.248806 C128.41919,18.248806 129.956392,20.8338369 129.956392,20.8338369 L129.956392,20.8338369 L129.956392,18.6680429 L133.834466,18.6680429 L133.834466,35.3679122 C133.834466,41.1317612 129.57196,43.6819876 124.925549,43.6819876 C120.498153,43.6819876 117.496605,40.9520874 117.107885,40.5798283 L117.069788,40.5427721 L117.069788,40.5427721 L117.064988,40.537974 L119.440664,37.3243513 C119.440664,37.3243513 119.442781,37.3265963 119.446975,37.3309502 L119.49675,37.3812916 C119.867074,37.7486482 122.035235,39.7691093 124.925549,39.7691093 C128.174503,39.7691093 129.642097,37.9877477 129.642097,35.5071305 L129.642097,35.5071305 L129.642097,33.5158868 C129.083114,34.214615 127.580716,35.6468762 124.960353,35.6468762 C120.663043,35.6468762 116.88991,32.0488211 116.88991,26.9483684 C116.88991,21.8468611 120.663043,18.248806 124.960353,18.248806 Z M200.772159,8.81571072 L200.772159,35.2276392 L196.894086,35.2276392 L196.894086,33.0618452 C196.894086,33.0618452 195.461825,35.6468762 191.898047,35.6468762 C187.600736,35.6468762 183.827603,32.0488211 183.827603,26.9483684 C183.827603,21.8468611 187.600736,18.248806 191.898047,18.248806 C195.042588,18.248806 196.57979,20.4145999 196.57979,20.4145999 L196.57979,20.4145999 L196.57979,8.81571072 L200.772159,8.81571072 Z M145.153706,18.248806 C148.892034,18.248806 151.372124,20.2753816 151.372124,20.2753816 L151.372124,20.2753816 L149.275939,23.349786 L149.275939,23.349786 L149.212867,23.3039671 C148.867718,23.0592077 147.150072,21.9169976 145.153706,21.9169976 C143.581699,21.9169976 142.148911,22.4754528 142.148911,23.4890043 C142.148911,24.5020285 143.266876,24.7467152 146.061789,25.3405024 C149.346075,26.0392307 151.686947,27.1229186 151.686947,30.5458961 C151.686947,33.3761411 148.682152,35.6468762 144.454978,35.6468762 C140.389244,35.6468762 137.890717,33.5411265 137.184988,32.8555336 L137.084005,32.7550222 C137.013751,32.6832285 136.978321,32.6426083 136.978321,32.6426083 L136.978321,32.6426083 L139.319193,29.6030085 C139.319193,29.6030085 141.520319,31.9792119 144.315232,31.9792119 C146.026984,31.9792119 147.459245,31.4893111 147.459245,30.476287 C147.459245,29.3936537 146.690908,29.1832442 144.175486,28.6595935 C140.8912,27.9613926 138.026678,26.5634087 138.026678,23.4188678 C138.026678,20.8338369 140.611708,18.248806 145.153706,18.248806 Z M80.7315925,13.7421405 L80.7315925,18.6680429 L85.7276314,18.6680429 L85.7276314,22.4406482 L80.7315925,22.4406482 L80.7315925,29.113635 C80.7315925,31.1402107 81.7794212,31.7339979 82.8973864,31.7339979 C83.8408014,31.7339979 84.6444708,31.1402107 84.6444708,31.1402107 L84.6444708,31.1402107 L86.1816729,34.5637155 L86.1816729,34.5637155 L86.1578787,34.579505 C85.9528199,34.7129264 84.4374513,35.6468762 82.1986582,35.6468762 C78.9845081,35.6468762 76.5392229,33.3060046 76.5392229,29.7775587 L76.5392229,29.7775587 L76.5392229,22.4406482 L73.2902683,22.4406482 L73.2902683,18.6680429 L76.5392229,18.6680429 L76.5392229,13.7421405 L80.7315925,13.7421405 Z M46.0050086,18.2484896 C50.7563608,18.2484896 53.5512738,20.6589703 53.5512738,24.4321029 L53.5512738,24.4321029 L53.5512738,35.2278501 L49.6732001,35.2278501 L49.6732001,33.1316653 C49.6732001,33.1316653 47.9614477,35.6470871 44.2231196,35.6470871 C41.1139107,35.6470871 38.2493885,33.6205114 38.2493885,30.0920655 C38.2493885,26.9127201 41.1487153,24.6071805 44.7472977,24.6071805 C47.7868975,24.6071805 49.3589042,25.7947549 49.3589042,25.7947549 L49.3589042,25.7947549 L49.3589042,24.8518672 C49.3589042,22.6855459 47.2627194,21.9868176 45.7956537,21.9868176 C43.3846457,21.9868176 40.8344194,23.2097239 40.8344194,23.2097239 L40.8344194,23.2097239 L39.4717674,19.7508872 C39.4717674,19.7508872 42.5461718,18.2484896 46.0050086,18.2484896 Z M64.8707772,18.248806 C68.6091053,18.248806 71.0897225,20.2753816 71.0897225,20.2753816 L71.0897225,20.2753816 L68.9935377,23.349786 L68.9935377,23.349786 L68.9304489,23.3039671 C68.5852094,23.0592077 66.8671437,21.9169976 64.8707772,21.9169976 C63.2987705,21.9169976 61.8665093,22.4754528 61.8665093,23.4890043 C61.8665093,24.5020285 62.9844746,24.7467152 65.7793876,25.3405024 C69.0631468,26.0392307 71.4040183,27.1229186 71.4040183,30.5458961 C71.4040183,33.3761411 68.3992231,35.6468762 64.172049,35.6468762 C59.3157557,35.6468762 56.6953928,32.6426083 56.6953928,32.6426083 L56.6953928,32.6426083 L59.0362644,29.6030085 C59.0362644,29.6030085 61.2373902,31.9792119 64.0323033,31.9792119 C65.7440557,31.9792119 67.1768442,31.4893111 67.1768442,30.476287 C67.1768442,29.3936537 66.4079794,29.1832442 63.8925576,28.6595935 C60.6087985,27.9613926 57.7437489,26.5634087 57.7437489,23.4188678 C57.7437489,20.8338369 60.3293072,18.248806 64.8707772,18.248806 Z M212.650065,18.2487005 C217.192063,18.2487005 221,21.7766191 221,26.8775991 C221,27.1924223 221,27.8210141 220.965195,28.4501332 L220.965195,28.4501332 L208.597441,28.4501332 C208.911737,29.9177262 210.624017,31.8040289 213.243853,31.8040289 C216.143707,31.8040289 217.78585,30.1265537 217.78585,30.1265537 L217.78585,30.1265537 L219.882035,33.2710946 C219.882035,33.2710946 217.261672,35.6467707 213.243853,35.6467707 C208.213009,35.6467707 204.335463,31.8040289 204.335463,26.9482629 C204.335463,22.0919697 207.863909,18.2487005 212.650065,18.2487005 Z M94.0072186,18.6682539 L94.0072186,35.2278501 L89.814849,35.2278501 L89.814849,18.6682539 L94.0072186,18.6682539 Z M34.3365102,10.7720971 L34.3365102,35.2275865 L30.1441406,35.2275865 L30.1441406,24.7123852 L22.5314302,24.7123852 L22.5314302,20.7293704 L30.1441406,20.7293704 L30.1441406,10.7720971 L34.3365102,10.7720971 Z M173.975851,10.7721499 C178.832145,10.7721499 182.081099,14.1260455 182.081099,18.5984338 C182.081099,23.0697674 178.832145,26.4241904 173.975851,26.4241904 L173.975851,26.4241904 L169.853091,26.4241904 L169.853091,35.2276392 L165.660721,35.2276392 L165.660721,10.7721499 Z M107.736834,18.2487005 C110.951511,18.2487005 113.816033,20.5194356 113.816033,24.501923 L113.816033,24.501923 L113.816033,35.2275337 L109.623664,35.2275337 L109.623664,25.5508064 C109.623664,23.174603 108.156598,22.1615788 106.339377,22.1615788 C104.173583,22.1615788 103.055618,24.2925682 103.055618,24.2925682 L103.055618,24.2925682 L103.055618,35.2275337 L98.8632482,35.2275337 L98.8632482,18.6679375 L102.776127,18.6679375 L102.776127,21.0778908 C102.776127,21.0778908 104.243192,18.2487005 107.736834,18.2487005 Z M45.5857716,27.6815849 C44.2932561,27.6815849 42.5113672,28.2405675 42.5113672,30.0224564 C42.5113672,31.7690134 44.2231196,32.1534458 45.5161624,32.1534458 C47.8519112,32.1534458 49.1632253,30.4965262 49.3386388,30.2598234 L49.3589042,30.2318112 L49.3589042,28.5200588 C49.3589042,28.5200588 47.8565066,27.6815849 45.5857716,27.6815849 Z M192.63158,22.1616843 C189.801862,22.1616843 188.09011,24.2230645 188.09011,26.9483684 C188.09011,29.673145 189.801862,31.7339979 192.63158,31.7339979 C195.391688,31.7339979 196.57979,29.4279309 196.57979,29.4279309 L196.57979,29.4279309 L196.57979,24.4677512 C196.57979,24.4677512 195.391688,22.1616843 192.63158,22.1616843 Z M125.693886,22.1616843 C122.864169,22.1616843 121.152416,24.2230645 121.152416,26.9483684 C121.152416,29.673145 122.864169,31.7339979 125.693886,31.7339979 C128.41919,31.7339979 129.642097,29.4279309 129.642097,29.4279309 L129.642097,29.4279309 L129.642097,24.4677512 C129.642097,24.4677512 128.453995,22.1616843 125.693886,22.1616843 Z M212.650065,22.0571651 C209.960093,22.0571651 208.737187,23.9434677 208.597441,25.4110608 L208.597441,25.4110608 L216.80763,25.4110608 C216.738021,23.977745 215.410174,22.0571651 212.650065,22.0571651 Z M173.451673,14.7551647 L169.853091,14.7551647 L169.853091,22.4406482 L173.451673,22.4406482 C176.316723,22.4406482 177.81912,20.9034461 177.81912,18.5984338 C177.81912,16.2923668 176.316723,14.7551647 173.451673,14.7551647 L173.451673,14.7551647 Z M91.9108756,10.5625841 C93.4480778,10.5625841 94.6709841,11.7849631 94.6709841,13.3221653 C94.6709841,14.8593675 93.4480778,16.0828011 91.9108756,16.0828011 C90.3736734,16.0828011 89.1507671,14.8593675 89.1507671,13.3221653 C89.1507671,11.7849631 90.3736734,10.5625841 91.9108756,10.5625841 Z" transform="translate(-1)"/>
</svg>
