<?xml version="1.0" encoding="utf-8"?>
<!-- Generator: Adobe Illustrator 24.0.1, SVG Export Plug-In . SVG Version: 6.00 Build 0)  -->
<svg version="1.1" id="Layer_1" xmlns="http://www.w3.org/2000/svg" xmlns:xlink="http://www.w3.org/1999/xlink" x="0px" y="0px"
	 viewBox="0 0 176 20" style="enable-background:new 0 0 176 20;" xml:space="preserve">
<style type="text/css">
	.st0{fill-rule:evenodd;clip-rule:evenodd;fill:#FFFFFF;}
</style>
<g>
	<path class="st0" d="M93,0c2.2,0,3.9,0.4,5.3,1.2C98.9,1.5,99,1.9,99,2.2c0,0.4-0.3,0.8-0.7,0.8c-0.3,0-0.5-0.1-0.9-0.3
		c-1.1-0.6-2.6-1-4.3-1c-4.4,0-8.3,3.1-8.3,8.3c0,4.8,3.5,8.3,8.3,8.3c1.5,0,3.1-0.3,4.5-1v-5.1h-4.1c-0.5,0-0.9-0.4-0.9-0.9
		c0-0.5,0.4-0.9,0.9-0.9h5.1c0.5,0,0.9,0.4,0.9,0.9v6.2c0,0.6-0.2,1-0.8,1.3c-1.4,0.7-3.2,1.2-6,1.2c-5.9,0-10-4.6-10-10
		C82.8,4.4,87,0,93,0z M129.2,0c5.5,0,9.7,4.4,9.7,10s-4.2,10-9.7,10c-5.5,0-9.7-4.3-9.7-10S123.8,0,129.2,0z M157.6,0.1
		c0.5,0,0.9,0.4,0.9,1V12c0,4.4-2.7,8-7.7,8c-5.1,0-7.7-3.6-7.7-8.1V1.1c0-0.6,0.4-1,1-1c0.6,0,0.9,0.4,0.9,1v10.8
		c0,3.9,2.1,6.3,5.8,6.3c3.7,0,5.8-2.5,5.8-6.3V1.1C156.7,0.5,157.1,0.1,157.6,0.1z M26.6,0.3c4.4,0,6.9,3.1,6.9,6.5
		c0,3.5-2.5,6.5-6.9,6.5h-2.8v4.9c0,1-0.7,1.7-1.7,1.7c-1,0-1.7-0.7-1.7-1.7V2c0-0.9,0.7-1.7,1.7-1.7H26.6z M43,0.3
		c4.5,0,6.8,2.7,6.8,6c0,2.6-1.5,4.5-3.6,5.5l4.4,5.2c0.3,0.3,0.5,0.7,0.5,1.2c0,0.9-0.7,1.7-1.7,1.7c-0.5,0-1-0.3-1.4-0.8l-5.3-6.7
		h-2.4v5.7c0,0.9-0.7,1.7-1.7,1.7c-1,0-1.7-0.8-1.7-1.7V1.9c0-0.9,0.7-1.7,1.7-1.7H43z M56,0.1c1,0,1.7,0.7,1.7,1.7v16.3
		c0,0.9-0.7,1.7-1.7,1.7c-1,0-1.7-0.8-1.7-1.7V1.9C54.3,0.9,55,0.1,56,0.1z M8.8,0.1c1,0,1.9,0.6,2.4,1.8l6.1,15.4
		c0.1,0.4,0.2,0.6,0.2,0.9c0,0.9-0.7,1.6-1.6,1.6c-0.8,0-1.3-0.4-1.6-1.1l-1.4-3.5H4.5l-1.4,3.6c-0.3,0.7-0.9,1.1-1.5,1.1
		c-0.9,0-1.6-0.7-1.6-1.6c0-0.3,0.1-0.5,0.2-0.8L6.4,1.9C6.9,0.7,7.8,0.1,8.8,0.1z M109.4,0.3c4,0,6.4,2.4,6.4,5.6
		c0,2.6-1.5,4.6-4,5.5l5.5,6.8c0.2,0.2,0.2,0.5,0.2,0.7c0,0.5-0.4,0.9-0.9,0.9c-0.4,0-0.7-0.2-0.8-0.4l-6.1-7.7h-3.7v7.1
		c0,0.5-0.4,0.9-0.9,0.9c-0.6,0-1-0.4-1-0.9V1.3c0-0.5,0.4-1,1-1H109.4z M166,0.3L166,0.3l3.3,0c3.7,0,6.5,2.5,6.5,6.1
		c0,3.7-2.8,6.1-6.5,6.1H166v6.4c0,0.6-0.4,1-1,1c-0.6,0-0.9-0.4-0.9-1V1.2c0-0.5,0.4-0.9,0.9-0.9H166z M64.1,0.1
		c1,0,1.7,0.7,1.7,1.7v14.8h6.3c0.9,0,1.5,0.7,1.5,1.5c0,0.9-0.7,1.5-1.5,1.5h-8c-1,0-1.7-0.7-1.7-1.7V1.9
		C62.4,0.9,63.1,0.1,64.1,0.1z M129.2,1.8c-3.9,0-7.7,3-7.7,8.2c0,5.1,3.8,8.2,7.7,8.2c3.9,0,7.7-3,7.7-8.2
		C136.9,4.8,133.1,1.8,129.2,1.8z M8.7,4.4L8.7,4.4l-3.1,7.9h6.2L8.7,4.4z M169.2,2H166v8.7h3.1c2.9,0,4.7-1.6,4.7-4.4
		C173.9,3.7,172,2,169.2,2z M26.3,3.3h-2.5v6.8h2.4c2.4,0,3.7-1.5,3.7-3.5C30,4.8,28.7,3.3,26.3,3.3z M109.4,2h-3.3v8h3.2
		c2.8,0,4.6-1.5,4.6-4C113.9,3.4,112,2,109.4,2z M42.8,3.3h-2.6v6.2h2.5c2.2,0,3.5-1.1,3.5-3.1C46.3,4.4,44.9,3.3,42.8,3.3z"/>
</g>
</svg>
